<svg id="svg" version="1.1" xmlns="http://www.w3.org/2000/svg" xmlns:xlink="http://www.w3.org/1999/xlink" width="400" height="400" viewBox="0, 0, 400,400"><g id="svgg"><path id="path0" d="M87.500 145.168 C 75.326 146.912,66.997 150.910,59.172 158.767 C 28.845 189.217,51.897 241.819,94.650 239.727 C 127.736 238.108,148.586 201.627,133.792 171.239 C 125.324 153.843,105.374 142.608,87.500 145.168 M88.742 160.818 C 89.809 161.399,91.030 162.362,91.455 162.959 L 92.228 164.044 93.406 162.702 C 99.453 155.814,112.844 160.072,115.256 169.649 C 115.635 171.155,115.987 171.622,117.342 172.416 C 123.034 175.752,126.358 183.120,124.841 189.039 C 124.229 191.430,124.231 191.457,125.251 193.469 C 128.085 199.062,125.928 206.350,120.536 209.393 C 118.630 210.469,118.395 210.748,118.152 212.227 C 116.309 223.429,101.361 229.077,94.179 221.285 L 92.569 219.539 91.141 221.119 C 84.121 228.890,68.547 223.727,67.302 213.215 C 67.081 211.344,66.988 211.215,65.382 210.527 C 58.818 207.713,56.239 199.230,59.823 192.245 C 61.133 189.693,61.217 189.334,60.863 187.801 C 59.562 182.177,62.865 175.459,68.291 172.691 C 69.692 171.976,69.923 171.681,69.930 170.598 C 69.981 163.202,81.817 157.049,88.742 160.818 M99.016 163.802 C 94.811 165.719,94.866 165.327,95.002 192.607 L 95.117 215.487 96.195 217.115 C 100.332 223.366,110.758 220.886,113.441 213.014 C 114.264 210.598,114.296 210.684,112.449 210.389 C 105.833 209.331,100.460 203.172,100.876 197.124 C 101.370 189.954,105.273 189.508,105.273 196.622 C 105.273 206.332,117.716 210.562,121.537 202.152 C 122.340 200.385,122.482 197.387,121.831 195.958 L 121.397 195.005 119.991 195.959 C 116.182 198.544,113.751 195.310,117.449 192.578 C 122.326 188.976,122.254 182.750,117.278 177.774 L 115.145 175.641 114.202 177.625 C 111.918 182.429,106.690 184.941,106.330 181.406 C 106.235 180.470,106.532 180.008,108.035 178.752 C 111.940 175.488,112.349 171.113,109.143 166.910 C 107.113 164.248,101.688 162.583,99.016 163.802 M79.233 164.950 C 73.085 168.123,72.615 174.298,78.165 178.978 C 80.699 181.114,80.526 183.594,77.844 183.594 C 76.730 183.594,73.244 180.368,71.991 178.177 C 71.421 177.182,70.901 176.297,70.836 176.212 C 70.563 175.853,67.565 178.298,66.655 179.621 C 62.847 185.157,64.960 190.968,71.460 192.831 C 74.173 193.608,74.609 193.957,74.609 195.347 C 74.609 198.020,70.054 197.756,65.647 194.828 C 63.644 193.496,63.243 193.727,62.452 196.664 C 60.464 204.044,68.044 209.567,76.084 206.595 C 80.332 205.025,81.641 205.233,81.641 207.475 C 81.641 209.218,76.475 211.719,72.876 211.719 C 69.598 211.719,72.413 217.044,76.880 219.293 C 82.346 222.046,86.650 221.078,89.347 216.491 L 90.430 214.648 90.430 191.797 L 90.430 168.945 89.359 167.124 C 87.166 163.394,83.693 162.648,79.233 164.950 M159.961 225.583 C 159.746 225.655,159.100 225.816,158.526 225.942 C 155.974 226.503,153.533 229.957,153.533 233.008 C 153.533 236.041,156.460 240.186,158.268 239.714 C 158.663 239.610,158.885 239.688,158.763 239.886 C 157.819 241.414,165.054 239.526,166.296 237.920 C 167.632 236.193,165.253 235.001,163.835 236.686 C 161.209 239.806,156.255 237.377,156.251 232.968 C 156.247 228.463,161.385 226.178,164.012 229.516 C 164.768 230.478,166.448 230.569,166.998 229.677 C 167.851 228.298,162.015 224.903,159.961 225.583 M241.602 225.861 C 235.490 227.991,235.599 237.732,241.758 239.791 C 243.381 240.333,246.094 240.374,246.094 239.856 C 246.094 239.648,246.323 239.566,246.603 239.673 C 247.488 240.013,249.770 238.148,250.684 236.340 C 253.720 230.329,247.934 223.653,241.602 225.861 M295.182 225.651 C 294.758 226.075,294.885 227.542,295.391 228.047 C 296.636 229.292,298.500 227.749,297.656 226.172 C 297.256 225.423,295.731 225.102,295.182 225.651 M191.797 227.908 C 191.797 228.895,190.385 230.218,189.750 229.825 C 189.554 229.704,189.451 230.106,189.521 230.720 C 189.612 231.514,189.891 231.871,190.489 231.956 C 191.267 232.067,191.340 232.340,191.466 235.604 C 191.617 239.523,192.288 240.625,194.527 240.625 C 196.515 240.625,197.174 238.656,195.313 238.279 C 193.814 237.975,193.557 232.031,195.043 232.031 C 196.364 232.031,196.343 229.946,195.020 229.758 C 194.303 229.656,194.141 229.385,194.141 228.293 C 194.141 227.065,194.043 226.953,192.969 226.953 C 191.986 226.953,191.797 227.107,191.797 227.908 M247.948 230.059 C 248.953 231.551,249.073 233.424,248.283 235.313 C 245.958 240.878,237.923 236.875,239.829 231.101 C 241.154 227.084,245.562 226.519,247.948 230.059 M170.073 229.680 C 169.620 229.863,168.866 230.499,168.398 231.094 L 167.548 232.175 168.637 232.648 C 169.579 233.057,169.815 233.021,170.375 232.381 C 171.271 231.358,173.282 231.401,173.846 232.455 C 174.401 233.492,174.375 233.512,171.845 233.980 C 168.658 234.570,165.722 237.207,167.568 237.822 C 167.791 237.897,167.867 238.129,167.738 238.339 C 166.786 239.879,170.748 241.071,173.043 239.936 C 173.905 239.509,174.612 239.270,174.615 239.404 C 174.632 240.084,175.332 240.623,175.910 240.401 C 176.716 240.092,176.860 233.112,176.096 231.434 C 175.268 229.618,172.338 228.765,170.073 229.680 M287.387 230.036 C 286.242 230.620,285.938 230.661,285.938 230.231 C 285.938 229.887,285.507 229.688,284.766 229.688 L 283.594 229.688 283.594 234.891 L 283.594 240.094 284.961 240.071 L 286.328 240.048 286.328 236.439 C 286.328 233.040,286.384 232.794,287.286 232.203 C 289.478 230.766,290.625 232.370,290.625 236.874 C 290.625 240.090,290.671 240.192,292.001 239.938 C 294.105 239.535,293.138 230.517,290.922 229.880 C 290.436 229.740,289.769 229.552,289.438 229.461 C 289.108 229.371,288.185 229.629,287.387 230.036 M178.516 236.979 L 178.516 244.141 179.883 244.141 L 181.250 244.141 181.250 241.787 L 181.250 239.433 182.482 240.070 C 185.650 241.708,189.063 239.147,189.063 235.132 C 189.063 233.443,188.933 232.846,188.612 233.045 C 188.324 233.223,188.267 233.152,188.454 232.848 C 189.544 231.086,184.642 229.044,182.280 230.276 C 180.905 230.993,180.721 231.002,180.976 230.339 C 181.118 229.967,180.793 229.818,179.846 229.818 L 178.516 229.818 178.516 236.979 M209.766 234.780 C 209.766 239.584,209.795 239.760,210.631 239.979 C 211.773 240.278,212.024 239.774,211.848 237.540 C 211.599 234.383,213.034 232.031,215.209 232.031 C 215.845 232.031,216.016 231.783,216.016 230.859 C 216.016 229.404,214.115 229.161,212.991 230.473 C 212.376 231.192,212.298 231.202,212.083 230.589 C 211.949 230.206,211.402 229.896,210.807 229.864 L 209.766 229.808 209.766 234.780 M219.141 230.372 C 215.705 232.088,215.597 238.052,218.969 239.856 C 221.391 241.153,226.172 239.808,226.172 237.831 C 226.172 236.916,224.512 236.674,223.668 237.467 C 222.407 238.652,220.571 238.537,219.522 237.207 C 218.533 235.952,218.426 235.993,223.047 235.847 L 226.367 235.742 226.488 234.498 C 226.836 230.902,222.714 228.587,219.141 230.372 M253.125 234.928 C 253.232 237.739,253.452 239.995,253.613 239.941 C 253.774 239.888,254.258 239.844,254.688 239.844 C 255.400 239.844,255.469 239.583,255.469 236.896 C 255.469 233.590,256.402 232.031,258.381 232.031 C 259.225 232.031,259.375 231.855,259.375 230.859 C 259.375 229.381,257.731 229.220,256.060 230.534 C 255.022 231.351,254.993 231.353,255.232 230.599 C 255.445 229.927,255.302 229.818,254.205 229.817 L 252.930 229.816 253.125 234.928 M263.086 230.407 C 261.500 231.376,260.803 232.288,261.085 233.023 C 261.220 233.375,261.155 233.533,260.933 233.396 C 260.701 233.252,260.547 233.830,260.548 234.840 C 260.552 238.762,264.144 241.307,267.330 239.646 C 267.945 239.325,268.486 239.063,268.532 239.063 C 268.577 239.063,268.537 239.594,268.441 240.244 C 268.098 242.584,265.160 243.381,263.495 241.585 C 262.784 240.817,262.344 240.649,261.561 240.846 C 260.232 241.179,260.282 241.610,261.826 243.154 C 264.374 245.702,268.994 245.128,270.438 242.084 C 271.567 239.704,271.393 230.249,270.215 229.934 C 269.703 229.798,269.173 229.909,268.945 230.202 C 268.627 230.611,268.374 230.610,267.578 230.201 C 266.198 229.491,264.453 229.571,263.086 230.407 M275.139 230.075 C 274.322 230.405,273.047 231.894,273.047 232.518 C 273.047 233.478,275.018 233.540,275.949 232.610 C 277.072 231.486,278.628 231.760,278.832 233.117 C 278.938 233.825,278.682 233.956,276.709 234.203 C 275.143 234.398,274.193 234.756,273.561 235.388 C 270.994 237.955,274.316 241.574,277.874 240.087 C 278.657 239.760,279.297 239.660,279.297 239.864 C 279.297 240.068,279.840 240.234,280.503 240.234 L 281.710 240.234 281.578 235.903 C 281.403 230.191,279.383 228.362,275.139 230.075 M299.609 230.859 L 299.609 232.031 301.953 232.031 C 303.242 232.031,304.297 232.117,304.297 232.221 C 304.297 232.326,303.242 233.851,301.953 235.611 C 299.614 238.804,299.175 239.813,300.098 239.878 C 305.185 240.240,307.621 240.003,307.745 239.135 C 307.867 238.276,307.771 238.242,305.498 238.324 C 302.350 238.437,302.355 238.513,305.271 234.647 C 308.874 229.870,308.817 229.688,303.711 229.688 L 299.609 229.688 299.609 230.859 M312.305 230.235 C 307.215 232.482,309.062 240.625,314.662 240.625 C 316.136 240.625,319.141 238.787,319.141 237.885 C 319.141 237.068,317.235 236.800,316.579 237.525 C 315.316 238.921,311.719 238.034,311.719 236.328 C 311.719 235.882,311.914 235.866,316.309 235.935 L 319.531 235.986 319.531 234.594 C 319.531 233.829,319.345 233.203,319.118 233.203 C 318.890 233.203,318.819 233.016,318.961 232.788 C 320.047 231.030,314.941 229.071,312.305 230.235 M198.047 234.191 C 198.047 239.753,200.600 241.967,204.260 239.578 C 205.105 239.026,205.176 239.026,204.966 239.573 C 204.786 240.043,204.996 240.173,205.893 240.148 L 207.054 240.115 206.945 235.194 L 206.836 230.273 205.762 230.234 L 204.688 230.195 204.688 233.457 C 204.688 236.198,204.563 236.843,203.906 237.500 C 201.883 239.523,200.391 237.817,200.391 233.482 L 200.391 230.244 199.219 230.155 L 198.047 230.066 198.047 234.191 M295.193 235.307 L 295.323 240.419 296.460 240.465 L 297.596 240.511 297.529 235.392 L 297.461 230.273 296.262 230.234 L 295.063 230.195 295.193 235.307 M185.391 232.330 C 186.453 233.039,187.326 237.918,186.275 237.271 C 186.138 237.187,185.809 237.380,185.543 237.700 C 184.225 239.288,181.250 237.525,181.250 235.156 C 181.250 232.970,183.771 231.249,185.391 232.330 M223.573 232.747 C 223.929 233.140,224.103 233.579,223.959 233.723 C 223.557 234.125,219.141 234.032,219.141 233.622 C 219.141 232.125,222.424 231.476,223.573 232.747 M267.751 232.899 C 269.202 234.970,267.974 237.891,265.653 237.891 C 263.027 237.891,261.978 233.826,264.219 232.330 C 265.155 231.705,267.138 232.025,267.751 232.899 M316.328 232.500 C 317.380 233.551,316.839 233.984,314.476 233.984 C 311.882 233.984,311.277 233.557,312.580 232.644 C 313.617 231.918,315.667 231.839,316.328 232.500 M174.219 236.091 C 174.219 237.333,172.966 238.323,171.545 238.205 C 170.024 238.078,169.494 236.900,170.703 236.335 C 171.025 236.184,171.637 235.884,172.062 235.669 C 172.977 235.205,174.219 235.448,174.219 236.091 M278.498 237.717 C 277.917 238.416,276.022 238.456,275.461 237.780 C 274.814 237.000,275.542 236.244,277.205 235.969 C 278.848 235.697,279.473 236.542,278.498 237.717 M227.894 238.037 C 227.426 239.257,227.900 240.039,229.107 240.039 C 230.143 240.039,230.273 239.908,230.273 238.867 C 230.273 237.535,228.345 236.862,227.894 238.037 M320.724 238.061 C 320.392 238.460,320.374 238.839,320.662 239.376 C 321.459 240.865,323.922 239.718,323.317 238.139 C 323.014 237.350,321.355 237.300,320.724 238.061 M165.544 256.835 C 165.607 260.810,165.783 264.077,165.935 264.095 C 168.125 264.353,167.969 264.583,167.969 261.111 C 167.969 257.375,168.606 256.164,170.646 256.022 C 171.321 255.976,171.783 256.083,171.672 256.262 C 171.562 256.441,171.650 256.697,171.869 256.832 C 172.091 256.970,172.266 258.668,172.266 260.700 L 172.266 264.323 173.633 264.323 L 175.000 264.323 174.998 261.165 C 174.995 257.365,174.481 255.306,173.335 254.504 C 172.382 253.836,169.319 253.692,168.945 254.297 C 168.335 255.284,167.969 254.477,167.969 252.148 L 167.969 249.609 166.699 249.609 L 165.430 249.608 165.544 256.835 M177.176 250.223 C 176.450 250.949,176.444 251.002,176.967 251.979 C 177.712 253.372,180.078 252.709,180.078 251.107 C 180.078 249.809,178.172 249.228,177.176 250.223 M193.490 256.949 L 193.425 264.286 194.759 264.286 C 196.035 264.286,196.094 264.223,196.094 262.855 C 196.094 260.842,197.136 260.003,198.003 261.317 C 199.614 263.760,200.452 264.453,201.793 264.453 C 203.480 264.453,203.508 264.573,201.025 261.215 L 198.925 258.376 200.872 256.141 L 202.819 253.906 201.249 253.906 C 199.843 253.906,199.495 254.119,197.896 255.957 L 196.113 258.008 196.103 253.809 L 196.094 249.609 194.824 249.611 L 193.555 249.613 193.490 256.949 M153.516 251.172 C 153.516 252.318,153.559 252.344,155.469 252.344 L 157.422 252.344 157.422 258.398 L 157.422 264.453 158.789 264.453 L 160.156 264.453 160.156 258.398 L 160.156 252.344 162.109 252.344 C 164.019 252.344,164.063 252.318,164.063 251.172 L 164.063 250.000 158.789 250.000 L 153.516 250.000 153.516 251.172 M210.679 250.756 C 209.380 251.548,209.121 252.095,209.024 254.252 C 208.939 256.116,209.828 257.239,211.995 258.012 C 213.025 258.378,214.351 258.856,214.941 259.074 C 216.096 259.499,216.400 260.788,215.547 261.641 C 214.379 262.808,210.938 261.771,210.938 260.252 C 210.938 259.854,208.722 259.897,208.316 260.303 C 207.206 261.413,211.156 264.450,213.712 264.452 C 219.959 264.457,220.475 258.223,214.402 256.112 C 213.075 255.651,211.797 254.966,211.563 254.590 C 210.411 252.741,214.076 251.454,215.483 253.213 C 216.184 254.090,217.578 254.257,217.578 253.464 C 217.578 253.252,217.754 253.188,217.969 253.320 C 218.553 253.681,218.440 253.024,217.750 252.038 C 216.327 250.007,212.920 249.389,210.679 250.756 M257.813 252.281 C 257.813 253.085,257.544 253.513,256.836 253.835 C 256.170 254.139,255.859 254.594,255.859 255.265 C 255.859 256.055,256.052 256.250,256.836 256.250 C 257.806 256.250,257.813 256.275,257.813 259.789 C 257.813 262.021,257.955 263.239,258.199 263.089 C 258.412 262.957,258.490 263.097,258.374 263.400 C 258.115 264.073,260.067 264.965,261.389 264.778 C 262.862 264.570,262.912 262.598,261.449 262.431 C 260.364 262.306,260.350 262.271,260.238 259.305 L 260.124 256.305 261.215 256.180 C 262.078 256.081,262.331 255.829,262.429 254.972 C 262.498 254.376,262.410 253.913,262.234 253.944 C 260.665 254.214,260.156 253.870,260.156 252.539 C 260.156 251.280,260.063 251.172,258.984 251.172 C 257.957 251.172,257.813 251.309,257.813 252.281 M182.283 254.176 C 181.862 254.596,181.995 263.994,182.425 264.260 C 183.721 265.061,184.375 264.039,184.380 261.204 C 184.387 257.578,184.656 256.663,185.848 256.210 C 187.922 255.421,188.672 256.564,188.672 260.514 C 188.672 264.178,188.814 264.453,190.713 264.453 C 191.632 264.453,191.581 256.243,190.660 255.936 C 190.423 255.857,190.321 255.644,190.434 255.462 C 191.183 254.249,186.129 253.320,185.156 254.492 C 184.561 255.210,183.829 255.266,184.094 254.574 C 184.296 254.048,182.750 253.708,182.283 254.176 M220.399 259.078 L 220.508 264.249 221.484 264.254 C 222.407 264.258,222.466 264.129,222.558 261.914 C 222.768 256.803,223.870 255.029,225.977 256.409 C 226.902 257.016,226.953 257.238,226.953 260.686 L 226.953 264.323 228.320 264.323 L 229.688 264.323 229.688 260.872 C 229.688 256.569,230.670 255.103,232.792 256.239 C 233.555 256.647,233.917 258.377,234.044 262.226 C 234.117 264.415,234.154 264.488,235.126 264.375 L 236.133 264.258 236.133 260.024 C 236.133 255.869,236.112 255.772,235.037 254.848 C 233.661 253.665,230.990 253.554,229.668 254.625 C 228.807 255.322,228.760 255.322,228.062 254.625 C 227.132 253.694,224.361 253.657,223.361 254.561 C 222.764 255.102,222.554 255.126,222.159 254.699 C 221.780 254.290,221.782 254.240,222.168 254.458 C 222.437 254.610,222.656 254.547,222.656 254.320 C 222.656 254.092,222.124 253.906,221.473 253.906 L 220.290 253.906 220.399 259.078 M240.374 254.294 C 239.556 254.623,238.281 256.112,238.281 256.737 C 238.281 257.604,240.346 257.826,240.911 257.020 C 241.778 255.782,243.904 256.085,244.064 257.469 C 244.167 258.361,244.062 258.470,243.251 258.315 C 240.429 257.776,237.585 259.829,238.074 262.053 C 238.296 263.067,239.675 264.794,240.076 264.561 C 240.159 264.514,240.492 264.577,240.817 264.701 C 241.615 265.007,243.173 264.584,243.891 263.865 C 244.413 263.344,244.506 263.369,244.735 264.090 C 244.898 264.602,245.207 264.818,245.575 264.677 C 245.895 264.554,246.319 264.453,246.516 264.453 C 247.024 264.453,246.963 257.792,246.442 256.296 C 245.741 254.285,242.801 253.314,240.374 254.294 M248.438 259.180 C 248.438 264.118,248.485 264.453,249.187 264.453 C 250.973 264.453,251.172 264.114,251.172 261.073 C 251.172 257.964,252.108 256.250,253.805 256.250 C 254.321 256.250,254.546 255.921,254.611 255.078 C 254.713 253.741,252.907 253.343,251.953 254.492 C 251.686 254.814,251.318 255.078,251.136 255.078 C 250.955 255.078,250.907 254.814,251.031 254.492 C 251.205 254.038,250.938 253.906,249.846 253.906 L 248.438 253.906 248.438 259.180 M266.406 254.603 C 265.654 254.986,265.087 255.526,265.146 255.804 C 265.205 256.081,265.073 256.197,264.853 256.060 C 264.295 255.715,263.671 257.542,263.678 259.498 C 263.695 264.426,268.841 266.550,272.559 263.164 C 273.666 262.156,273.659 261.945,272.498 261.416 C 271.722 261.063,271.441 261.120,270.875 261.744 C 269.964 262.752,267.816 262.738,266.797 261.719 C 265.435 260.357,265.837 260.156,269.922 260.156 L 273.828 260.156 273.827 258.887 C 273.822 255.154,269.840 252.856,266.406 254.603 M275.414 258.856 C 275.381 261.578,275.280 263.925,275.190 264.071 C 275.052 264.295,276.462 264.328,277.441 264.124 C 277.603 264.090,277.734 262.736,277.734 261.115 C 277.734 257.913,278.663 256.250,280.451 256.250 C 281.078 256.250,281.250 255.998,281.250 255.078 C 281.250 253.642,279.773 253.430,278.516 254.688 C 278.086 255.117,277.635 255.469,277.513 255.469 C 277.391 255.469,277.403 255.117,277.539 254.688 C 277.749 254.026,277.609 253.906,276.630 253.906 L 275.474 253.906 275.414 258.856 M177.039 259.473 L 177.148 264.648 178.418 264.771 L 179.688 264.893 179.688 259.595 L 179.688 254.297 178.309 254.297 L 176.930 254.297 177.039 259.473 M270.480 256.864 C 271.626 258.010,271.237 258.301,268.555 258.301 C 266.887 258.301,266.406 258.152,266.406 257.637 C 266.406 256.332,269.384 255.768,270.480 256.864 M244.141 260.694 C 244.141 261.914,243.279 262.587,241.918 262.431 C 240.322 262.248,240.139 260.671,241.674 260.331 C 242.279 260.197,242.949 260.029,243.164 259.958 C 243.990 259.682,244.141 259.795,244.141 260.694 M281.019 262.256 C 280.551 263.476,281.025 264.258,282.232 264.258 C 283.268 264.258,283.398 264.126,283.398 263.086 C 283.398 261.754,281.470 261.081,281.019 262.256 " stroke="none" fill="#f9c260" fill-rule="evenodd"></path><path id="path1" d="M0.000 200.000 L 0.000 400.000 200.000 400.000 L 400.000 400.000 400.000 200.000 L 400.000 0.000 200.000 0.000 L 0.000 0.000 0.000 200.000 M99.420 145.500 C 103.777 146.147,108.565 147.618,112.033 149.375 C 113.097 149.915,114.077 150.246,114.210 150.113 C 114.344 149.979,114.453 150.071,114.453 150.318 C 114.453 150.564,115.116 151.104,115.926 151.517 C 117.834 152.490,120.978 154.860,123.386 157.140 C 124.437 158.135,125.405 158.839,125.539 158.706 C 125.672 158.573,125.781 158.682,125.781 158.950 C 125.781 159.218,126.629 160.434,127.665 161.652 C 129.804 164.168,132.422 167.816,132.422 168.282 C 132.422 168.454,132.627 168.799,132.878 169.050 C 133.129 169.301,133.551 170.083,133.816 170.788 C 134.218 171.858,135.348 174.743,136.918 178.711 C 138.024 181.506,138.636 187.163,138.556 193.847 C 138.512 197.446,138.381 200.390,138.264 200.390 C 137.946 200.391,137.096 204.740,137.337 205.131 C 137.452 205.317,137.368 205.469,137.150 205.469 C 136.802 205.469,136.211 207.486,136.317 208.315 C 136.338 208.484,136.086 208.892,135.756 209.222 C 135.426 209.551,135.156 210.041,135.156 210.310 C 135.156 210.579,134.616 211.797,133.955 213.017 C 133.294 214.236,132.899 215.237,133.076 215.240 C 133.253 215.244,133.223 215.375,133.008 215.533 C 132.484 215.918,131.721 217.151,131.217 218.426 C 130.990 218.999,130.553 219.565,130.246 219.683 C 129.939 219.801,129.688 220.079,129.688 220.300 C 129.688 220.522,129.380 221.037,129.004 221.445 C 126.728 223.916,125.875 224.903,125.739 225.224 C 125.655 225.423,124.939 226.141,124.149 226.819 C 123.359 227.497,122.832 228.184,122.978 228.346 C 123.123 228.508,123.042 228.527,122.798 228.387 C 122.554 228.248,122.129 228.405,121.854 228.736 C 121.579 229.067,120.329 230.057,119.076 230.937 C 117.822 231.816,116.797 232.685,116.797 232.869 C 116.797 233.053,116.665 233.172,116.504 233.135 C 116.034 233.026,114.063 234.078,114.063 234.438 C 114.063 234.618,113.931 234.726,113.770 234.678 C 113.292 234.536,109.375 236.437,109.375 236.811 C 109.375 237.001,109.215 237.057,109.020 236.936 C 108.515 236.624,107.383 237.121,107.642 237.540 C 107.761 237.732,107.540 237.850,107.152 237.802 C 106.275 237.693,101.953 238.712,101.953 239.027 C 101.953 239.154,101.470 239.285,100.879 239.318 C 90.253 239.909,88.742 239.903,84.961 239.251 C 82.813 238.881,80.703 238.555,80.273 238.527 C 79.844 238.499,79.404 238.380,79.297 238.262 C 79.035 237.974,74.568 236.293,73.828 236.203 C 73.506 236.165,73.154 236.038,73.047 235.923 C 72.939 235.808,71.525 234.962,69.903 234.043 C 66.610 232.178,63.390 229.854,60.873 227.528 C 59.950 226.675,59.046 226.025,58.865 226.084 C 58.684 226.143,58.635 226.031,58.756 225.835 C 59.047 225.365,58.027 224.533,57.616 224.906 C 57.440 225.065,57.409 224.998,57.547 224.756 C 57.685 224.515,57.362 223.990,56.829 223.589 C 56.296 223.189,55.859 222.682,55.859 222.462 C 55.859 222.242,55.420 221.588,54.883 221.009 C 54.346 220.430,53.906 219.773,53.906 219.548 C 53.906 219.324,53.730 219.141,53.516 219.141 C 53.301 219.141,53.125 218.886,53.125 218.574 C 53.125 218.263,52.846 217.851,52.504 217.660 C 52.163 217.469,51.875 217.153,51.865 216.957 C 51.832 216.290,51.047 214.844,50.719 214.844 C 50.538 214.844,50.425 214.712,50.468 214.551 C 50.621 213.972,49.939 212.500,49.518 212.500 C 49.282 212.500,49.190 212.398,49.314 212.274 C 49.438 212.150,49.048 210.856,48.447 209.397 C 47.413 206.891,46.205 202.541,45.945 200.391 C 45.086 193.287,44.978 190.208,45.479 187.105 C 45.636 186.135,45.810 184.641,45.867 183.784 C 45.965 182.308,46.600 179.644,47.263 177.930 C 48.915 173.655,49.846 171.480,50.482 170.410 C 50.896 169.712,51.089 169.138,50.911 169.135 C 50.732 169.131,50.777 169.000,51.010 168.842 C 51.243 168.684,52.074 167.588,52.856 166.406 C 53.638 165.225,54.580 163.818,54.950 163.281 C 60.426 155.315,73.821 147.180,84.171 145.535 C 85.010 145.402,85.741 145.248,85.796 145.194 C 86.232 144.758,95.882 144.974,99.420 145.500 M222.550 160.441 C 221.739 160.526,220.509 160.524,219.816 160.438 C 219.122 160.352,219.785 160.283,221.289 160.284 C 222.793 160.286,223.360 160.357,222.550 160.441 M329.590 160.426 C 329.214 160.524,328.599 160.524,328.223 160.426 C 327.847 160.327,328.154 160.247,328.906 160.247 C 329.658 160.247,329.966 160.327,329.590 160.426 M225.602 161.364 C 249.769 165.832,250.144 204.500,226.070 209.631 C 216.342 211.704,205.930 207.298,201.467 199.219 C 190.851 180.004,205.146 157.583,225.602 161.364 M332.584 161.710 C 348.259 165.719,355.203 188.217,344.716 201.015 C 343.030 203.072,342.925 202.543,345.801 206.487 C 347.144 208.328,348.209 209.922,348.168 210.030 C 348.067 210.292,341.314 214.892,341.228 214.756 C 340.900 214.237,336.941 208.716,336.723 208.473 C 336.567 208.300,335.315 208.554,333.942 209.038 C 323.356 212.771,310.799 207.631,305.887 197.555 C 296.253 177.796,312.131 156.479,332.584 161.710 M163.965 162.988 C 164.384 163.687,166.713 167.510,169.141 171.484 C 171.568 175.459,175.462 181.864,177.793 185.717 L 182.031 192.723 182.031 177.221 L 182.031 161.719 186.914 161.719 L 191.797 161.719 191.797 185.547 L 191.797 209.375 186.816 209.367 L 181.836 209.360 180.624 207.317 C 179.958 206.193,175.783 199.311,171.347 192.023 L 163.281 178.773 163.281 194.074 L 163.281 209.375 158.594 209.375 L 153.906 209.375 153.906 185.547 L 153.906 161.719 158.555 161.719 L 163.204 161.719 163.965 162.988 M281.250 166.016 L 281.250 170.313 274.609 170.313 L 267.969 170.313 267.969 189.844 L 267.969 209.375 263.281 209.375 L 258.594 209.375 258.594 189.844 L 258.594 170.313 251.953 170.313 L 245.313 170.313 245.313 166.016 L 245.313 161.719 263.281 161.719 L 281.250 161.719 281.250 166.016 M296.875 185.547 L 296.875 209.375 291.992 209.375 L 287.109 209.375 287.109 185.547 L 287.109 161.719 291.992 161.719 L 296.875 161.719 296.875 185.547 M216.514 170.568 C 211.487 172.348,207.815 178.679,207.827 185.547 C 207.859 205.000,231.175 207.382,234.015 188.222 C 235.787 176.273,226.592 166.999,216.514 170.568 M322.210 170.465 C 307.955 175.557,310.890 201.174,325.739 201.263 C 331.471 201.297,331.582 201.107,328.355 196.744 C 325.560 192.965,325.516 193.349,329.016 191.055 C 332.753 188.605,332.180 188.484,334.931 192.299 L 337.246 195.508 338.140 193.544 C 344.002 180.680,334.035 166.240,322.210 170.465 M302.620 183.687 C 302.527 184.173,302.447 183.867,302.442 183.008 C 302.438 182.148,302.514 181.751,302.612 182.124 C 302.710 182.498,302.713 183.201,302.620 183.687 M302.624 188.184 C 302.534 188.774,302.461 188.291,302.461 187.109 C 302.461 185.928,302.534 185.444,302.624 186.035 C 302.713 186.626,302.713 187.593,302.624 188.184 M160.645 210.054 C 159.517 210.133,157.671 210.133,156.543 210.054 C 155.415 209.975,156.338 209.910,158.594 209.910 C 160.850 209.910,161.772 209.975,160.645 210.054 M189.371 210.054 C 188.144 210.131,186.034 210.132,184.683 210.055 C 183.332 209.979,184.336 209.916,186.914 209.915 C 189.492 209.914,190.598 209.977,189.371 210.054 M265.723 210.055 C 264.380 210.131,262.183 210.131,260.840 210.055 C 259.497 209.979,260.596 209.916,263.281 209.916 C 265.967 209.916,267.065 209.979,265.723 210.055 M294.449 210.054 C 293.222 210.131,291.113 210.132,289.761 210.055 C 288.410 209.979,289.414 209.916,291.992 209.915 C 294.570 209.914,295.676 209.977,294.449 210.054 M328.613 210.823 C 328.130 210.916,327.339 210.916,326.855 210.823 C 326.372 210.729,326.768 210.653,327.734 210.653 C 328.701 210.653,329.097 210.729,328.613 210.823 M90.865 219.359 C 90.557 220.164,90.879 220.606,91.396 220.088 C 91.599 219.886,91.620 219.487,91.444 219.202 C 91.193 218.795,91.069 218.829,90.865 219.359 M161.626 224.878 C 161.252 224.976,160.549 224.979,160.063 224.886 C 159.577 224.792,159.883 224.712,160.742 224.708 C 161.602 224.704,161.999 224.780,161.626 224.878 M163.977 226.225 C 165.400 226.914,167.180 228.841,167.186 229.700 C 167.190 230.206,164.650 230.863,164.494 230.396 C 163.424 227.186,158.177 227.395,156.795 230.703 C 154.725 235.656,160.115 240.336,163.728 236.722 C 164.841 235.610,164.949 235.581,166.004 236.127 C 167.046 236.666,167.146 236.645,167.721 235.767 C 168.339 234.825,169.692 234.253,172.363 233.804 C 173.439 233.624,173.828 233.366,173.828 232.837 C 173.828 231.493,171.389 231.178,170.612 232.422 C 170.052 233.319,169.943 233.340,168.568 232.817 C 166.230 231.929,169.177 229.297,172.509 229.297 C 175.529 229.297,176.563 230.720,176.563 234.882 C 176.563 236.698,176.672 238.733,176.807 239.404 C 177.044 240.592,177.012 240.625,175.635 240.625 C 174.662 240.625,174.219 240.449,174.219 240.062 C 174.219 239.573,174.079 239.573,173.145 240.060 C 170.819 241.273,167.188 239.898,167.188 237.803 C 167.188 237.073,167.118 237.093,166.376 238.036 C 164.002 241.054,158.558 241.241,155.719 238.401 C 149.776 232.459,156.469 222.591,163.977 226.225 M247.533 226.150 C 251.384 227.898,252.826 234.039,250.168 237.366 C 246.509 241.944,238.966 240.909,237.316 235.602 C 235.241 228.926,241.300 223.320,247.533 226.150 M297.810 226.270 C 298.396 227.205,297.682 228.284,296.374 228.441 C 295.074 228.597,294.291 227.350,294.934 226.148 C 295.457 225.172,297.168 225.244,297.810 226.270 M194.141 228.348 C 194.141 229.640,194.220 229.734,195.215 229.618 C 196.176 229.505,196.289 229.616,196.289 230.664 C 196.289 231.656,196.122 231.855,195.199 231.961 L 194.109 232.086 194.222 235.086 C 194.335 238.052,194.348 238.087,195.433 238.212 C 197.402 238.437,196.765 240.395,194.673 240.548 C 192.165 240.731,191.406 239.512,191.406 235.299 C 191.406 232.074,191.394 232.031,190.430 232.031 C 189.574 232.031,189.453 231.862,189.453 230.664 C 189.453 229.912,189.585 229.318,189.746 229.343 C 190.910 229.527,191.448 229.185,191.660 228.125 C 192.043 226.210,194.141 226.399,194.141 228.348 M242.095 228.325 C 239.047 230.039,239.097 235.707,242.175 237.298 C 247.222 239.908,251.302 232.642,246.959 228.775 C 245.863 227.799,243.430 227.574,242.095 228.325 M216.016 230.905 C 216.016 232.317,215.921 232.488,215.239 232.310 C 213.401 231.829,212.500 233.354,212.500 236.942 L 212.500 240.234 211.133 240.234 L 209.766 240.234 209.766 234.961 L 209.766 229.688 211.121 229.688 C 212.190 229.688,212.426 229.816,212.241 230.299 C 212.054 230.785,212.277 230.745,213.327 230.105 C 215.414 228.833,216.016 229.012,216.016 230.905 M259.301 230.731 C 259.194 231.997,259.042 232.183,258.008 232.316 C 256.062 232.566,255.678 233.280,255.526 236.928 L 255.389 240.234 254.061 240.234 L 252.734 240.234 252.734 234.961 L 252.734 229.688 254.102 229.688 C 255.113 229.688,255.469 229.856,255.469 230.334 C 255.469 230.916,255.537 230.921,256.152 230.385 C 258.003 228.773,259.453 228.932,259.301 230.731 M291.969 230.466 C 292.669 231.166,292.790 231.850,292.905 235.752 L 293.036 240.234 291.635 240.234 L 290.234 240.234 290.234 236.602 C 290.234 232.641,289.965 232.031,288.217 232.031 C 286.700 232.031,286.328 232.988,286.328 236.888 L 286.328 240.234 284.961 240.234 L 283.594 240.234 283.594 234.961 L 283.594 229.688 284.766 229.688 C 285.596 229.688,285.938 229.876,285.938 230.334 C 285.938 230.916,286.006 230.921,286.621 230.385 C 288.130 229.071,290.609 229.108,291.969 230.466 M181.109 230.273 C 180.827 231.008,181.222 231.003,182.204 230.261 C 185.169 228.018,189.952 231.881,189.295 235.988 C 188.693 239.750,184.832 241.918,182.118 240.017 L 181.250 239.409 181.250 241.775 L 181.250 244.141 179.883 244.141 L 178.516 244.141 178.516 236.914 L 178.516 229.688 179.925 229.688 C 181.017 229.688,181.283 229.819,181.109 230.273 M207.146 235.285 L 207.065 240.430 205.974 240.295 C 205.374 240.221,204.830 240.019,204.766 239.846 C 204.701 239.674,204.106 239.803,203.442 240.134 C 200.074 241.815,197.945 239.522,197.722 233.974 L 197.565 230.078 198.978 230.078 L 200.391 230.078 200.391 233.229 C 200.391 237.097,200.752 237.891,202.515 237.891 C 204.177 237.891,204.688 236.657,204.688 232.637 L 204.688 229.844 205.957 229.992 L 207.227 230.141 207.146 235.285 M224.487 230.449 C 225.962 231.349,226.378 232.054,226.747 234.277 L 227.022 235.938 223.081 235.938 C 218.875 235.938,218.131 236.358,220.009 237.673 C 221.206 238.512,222.503 238.434,223.471 237.466 C 224.584 236.353,226.811 237.088,226.137 238.346 C 224.502 241.401,219.078 241.291,217.172 238.165 C 214.186 233.268,219.653 227.502,224.487 230.449 M267.877 230.292 C 268.656 230.838,268.717 230.838,268.508 230.292 C 268.325 229.815,268.574 229.688,269.685 229.688 L 271.094 229.688 271.094 235.489 C 271.094 242.127,270.631 243.420,267.881 244.467 C 265.108 245.522,260.547 243.742,260.547 241.604 C 260.547 240.388,262.637 240.301,263.731 241.471 C 265.527 243.391,268.367 242.451,268.353 239.941 C 268.349 239.209,268.243 239.032,268.019 239.385 C 266.949 241.072,262.504 240.107,261.203 237.904 C 258.537 233.391,263.774 227.418,267.877 230.292 M280.499 230.829 C 281.623 231.954,281.641 232.037,281.641 236.298 L 281.641 240.625 280.469 240.625 C 279.709 240.625,279.297 240.427,279.297 240.062 C 279.297 239.573,279.157 239.573,278.223 240.060 C 275.447 241.508,272.496 239.993,272.731 237.240 C 272.887 235.405,274.168 234.437,276.861 234.118 C 278.458 233.929,278.906 233.725,278.906 233.191 C 278.906 231.865,276.517 231.601,275.655 232.832 C 275.229 233.440,274.848 233.570,274.067 233.374 C 272.498 232.981,272.476 232.524,273.955 231.045 C 275.832 229.168,278.742 229.072,280.499 230.829 M307.813 230.519 C 307.813 230.977,306.704 232.866,305.350 234.718 L 302.888 238.086 305.527 238.026 L 308.166 237.966 308.087 239.099 L 308.008 240.233 303.809 240.234 C 298.606 240.235,298.505 239.966,301.988 235.352 L 304.347 232.227 301.978 232.110 C 299.641 231.996,299.609 231.978,299.609 230.841 L 299.609 229.688 303.711 229.688 C 307.635 229.688,307.813 229.723,307.813 230.519 M317.200 230.280 C 318.601 231.004,319.531 232.703,319.531 234.537 L 319.531 235.910 315.527 236.021 L 311.523 236.133 312.580 237.207 C 313.832 238.480,315.360 238.600,316.302 237.500 C 317.496 236.106,319.620 237.046,318.788 238.601 C 317.467 241.070,313.159 241.376,310.942 239.159 C 306.356 234.573,311.471 227.317,317.200 230.280 M297.685 230.957 C 297.701 231.440,297.745 233.813,297.783 236.230 L 297.852 240.625 296.387 240.625 L 294.922 240.625 294.922 235.352 L 294.922 230.078 296.289 230.078 C 297.438 230.078,297.661 230.218,297.685 230.957 M182.376 232.771 C 180.462 234.321,181.618 238.281,183.984 238.281 C 185.373 238.281,186.506 236.910,186.506 235.229 C 186.506 232.432,184.367 231.159,182.376 232.771 M219.867 232.800 L 218.945 233.568 221.387 233.581 C 223.850 233.594,224.461 233.179,223.073 232.436 C 221.935 231.827,220.893 231.945,219.867 232.800 M264.028 232.762 C 262.105 234.319,263.336 237.891,265.795 237.891 C 267.039 237.891,268.359 236.319,268.359 234.838 C 268.359 232.416,265.906 231.241,264.028 232.762 M312.724 232.626 C 311.644 233.442,312.103 233.652,314.677 233.517 C 316.836 233.404,316.910 233.366,316.256 232.715 C 315.427 231.889,313.753 231.847,312.724 232.626 M252.229 234.468 C 252.136 234.954,252.056 234.648,252.052 233.789 C 252.047 232.930,252.124 232.532,252.222 232.906 C 252.319 233.279,252.323 233.982,252.229 234.468 M222.363 233.088 C 221.880 233.181,221.089 233.181,220.605 233.088 C 220.122 232.995,220.518 232.919,221.484 232.919 C 222.451 232.919,222.847 232.995,222.363 233.088 M171.806 235.824 C 170.553 236.016,169.749 236.876,170.061 237.690 C 170.322 238.369,171.963 238.471,173.073 237.877 C 173.908 237.430,174.134 235.510,173.340 235.605 C 173.071 235.638,172.381 235.736,171.806 235.824 M276.051 236.211 C 275.589 236.331,275.387 236.686,275.465 237.240 C 275.705 238.920,278.906 238.227,278.906 236.496 C 278.906 235.942,277.595 235.811,276.051 236.211 M230.233 237.951 C 230.999 239.044,230.409 240.234,229.102 240.234 C 226.773 240.234,227.009 237.550,229.372 237.155 C 229.521 237.130,229.908 237.488,230.233 237.951 M323.029 237.674 C 323.866 238.682,323.373 240.024,322.113 240.168 C 320.430 240.360,319.731 238.919,320.926 237.723 C 321.691 236.958,322.421 236.941,323.029 237.674 M167.969 252.158 L 167.969 254.708 169.188 254.077 C 172.711 252.255,174.759 254.432,174.937 260.187 L 175.069 264.453 173.667 264.453 L 172.266 264.453 172.266 260.790 C 172.266 256.743,171.947 256.100,170.052 256.319 C 168.453 256.504,167.931 257.840,168.057 261.427 L 168.164 264.455 166.797 264.454 L 165.430 264.452 165.333 257.031 L 165.236 249.609 166.602 249.609 L 167.969 249.609 167.969 252.158 M179.683 250.190 C 180.994 251.770,178.874 253.661,177.259 252.353 C 176.502 251.740,176.453 251.528,176.861 250.632 C 177.389 249.472,178.892 249.237,179.683 250.190 M196.178 253.703 L 196.289 257.798 198.047 255.659 C 199.606 253.763,199.971 253.521,201.270 253.518 C 203.128 253.515,203.109 253.687,200.977 256.124 C 198.821 258.589,198.789 258.148,201.376 261.586 L 203.534 264.453 201.799 264.453 C 200.268 264.453,199.968 264.303,199.251 263.184 C 197.467 260.399,197.341 260.298,196.692 261.156 C 196.377 261.573,196.113 262.485,196.106 263.184 C 196.095 264.372,196.006 264.453,194.727 264.453 L 193.359 264.453 193.359 257.031 L 193.359 249.609 194.713 249.609 L 196.067 249.609 196.178 253.703 M164.368 251.172 C 164.335 252.324,164.299 252.344,162.245 252.344 L 160.156 252.344 160.156 258.398 L 160.156 264.453 158.789 264.453 L 157.422 264.453 157.422 258.398 L 157.422 252.344 155.273 252.344 C 153.147 252.344,153.125 252.332,153.125 251.172 L 153.125 250.000 158.763 250.000 L 164.401 250.000 164.368 251.172 M217.196 251.375 C 218.628 252.748,218.665 253.419,217.337 253.924 C 216.469 254.254,216.177 254.164,215.403 253.328 C 214.043 251.861,211.328 252.223,211.328 253.872 C 211.328 254.856,211.924 255.262,214.585 256.093 C 220.681 257.996,219.970 264.453,213.665 264.453 C 209.907 264.453,206.518 260.820,209.353 259.832 C 210.424 259.459,210.558 259.525,211.306 260.793 C 212.044 262.044,212.241 262.145,213.730 262.034 C 217.182 261.778,216.742 259.686,212.970 258.423 C 209.786 257.356,208.789 256.333,208.789 254.132 C 208.789 250.223,214.156 248.463,217.196 251.375 M260.293 252.344 C 260.073 253.446,260.131 253.516,261.279 253.516 C 262.414 253.516,262.500 253.612,262.500 254.883 C 262.500 256.141,262.407 256.250,261.328 256.250 L 260.156 256.250 260.156 258.757 C 260.156 261.897,260.387 262.500,261.591 262.500 C 263.335 262.500,262.697 264.616,260.907 264.766 C 258.347 264.980,257.640 263.957,257.481 259.800 C 257.348 256.351,257.317 256.250,256.406 256.250 C 255.595 256.250,255.469 256.066,255.469 254.883 C 255.469 253.624,255.562 253.516,256.641 253.516 C 257.682 253.516,257.813 253.385,257.813 252.344 C 257.813 251.266,257.922 251.172,259.170 251.172 C 260.470 251.172,260.517 251.222,260.293 252.344 M184.121 254.462 C 184.067 255.082,184.112 255.083,184.775 254.484 C 186.162 253.229,188.400 253.284,189.886 254.611 L 191.211 255.794 191.343 260.123 L 191.475 264.453 190.074 264.453 L 188.672 264.453 188.672 261.012 C 188.672 257.029,188.252 256.115,186.513 256.314 C 184.928 256.496,184.388 257.791,184.381 261.426 L 184.375 264.453 183.008 264.453 L 181.641 264.453 181.641 259.245 C 181.641 256.380,181.720 253.957,181.817 253.860 C 182.320 253.357,184.176 253.842,184.121 254.462 M222.656 254.351 C 222.656 254.547,223.175 254.439,223.809 254.112 C 225.452 253.262,226.847 253.374,227.913 254.440 C 228.828 255.355,228.845 255.357,229.596 254.606 C 231.063 253.138,233.376 253.219,234.950 254.794 L 236.328 256.172 236.328 260.313 L 236.328 264.453 234.961 264.453 L 233.594 264.453 233.594 260.820 C 233.594 256.860,233.325 256.250,231.576 256.250 C 230.060 256.250,229.688 257.207,229.688 261.107 L 229.688 264.453 228.320 264.453 L 226.953 264.453 226.953 261.107 C 226.953 257.207,226.581 256.250,225.064 256.250 C 223.316 256.250,223.047 256.860,223.047 260.820 L 223.047 264.453 221.680 264.453 L 220.313 264.453 220.313 259.052 L 220.313 253.651 221.484 253.823 C 222.129 253.918,222.656 254.155,222.656 254.351 M251.172 254.564 C 251.172 255.045,251.268 255.038,251.785 254.521 C 252.592 253.713,254.252 253.315,254.747 253.809 C 255.592 254.655,254.955 256.355,253.745 256.482 C 251.816 256.684,251.382 257.488,251.229 261.147 L 251.092 264.453 249.765 264.453 L 248.438 264.453 248.438 259.245 C 248.438 256.380,248.524 253.950,248.631 253.843 C 249.054 253.420,251.172 254.021,251.172 254.564 M281.445 255.035 C 281.445 256.208,281.316 256.372,280.307 256.480 C 278.377 256.685,277.944 257.489,277.792 261.147 L 277.654 264.453 276.327 264.453 L 275.000 264.453 275.000 259.180 L 275.000 253.906 276.367 253.906 C 277.350 253.906,277.734 254.079,277.734 254.521 C 277.734 255.026,277.920 254.989,278.786 254.308 C 280.342 253.083,281.445 253.385,281.445 255.035 M245.584 254.848 C 246.650 255.764,246.683 255.913,246.811 260.317 L 246.942 264.844 245.737 264.844 C 244.948 264.844,244.531 264.649,244.531 264.281 C 244.531 263.792,244.391 263.791,243.457 264.279 C 240.549 265.795,237.509 263.939,237.956 260.919 C 238.149 259.611,239.912 258.510,242.158 258.294 C 244.140 258.104,244.589 257.636,243.672 256.719 C 242.964 256.011,241.516 256.156,240.930 256.994 C 240.555 257.528,240.108 257.680,239.339 257.533 C 237.729 257.225,237.698 256.756,239.190 255.264 C 240.950 253.503,243.803 253.318,245.584 254.848 M272.312 255.423 C 273.578 256.689,273.828 257.202,273.828 258.534 L 273.828 260.129 269.885 260.240 L 265.942 260.352 266.789 261.426 C 267.814 262.728,269.561 262.861,270.697 261.725 C 271.352 261.070,271.627 261.019,272.455 261.397 C 273.645 261.939,273.677 262.261,272.641 263.297 C 270.045 265.893,265.637 265.166,264.045 261.879 C 261.358 256.327,268.016 251.127,272.312 255.423 M179.688 259.570 L 179.688 264.844 178.320 264.844 L 176.953 264.844 176.953 259.570 L 176.953 254.297 178.320 254.297 L 179.688 254.297 179.688 259.570 M267.041 256.843 C 266.032 257.852,266.260 258.008,268.750 258.008 C 270.150 258.008,271.035 257.850,270.947 257.617 C 270.867 257.402,270.603 257.271,270.361 257.324 C 270.120 257.378,269.966 257.202,270.020 256.934 C 270.172 256.173,267.784 256.100,267.041 256.843 M241.222 260.686 C 240.261 261.388,240.708 262.500,241.952 262.500 C 243.014 262.500,244.141 261.581,244.141 260.714 C 244.141 259.992,242.196 259.973,241.222 260.686 M283.855 262.726 C 284.187 263.592,283.195 264.507,282.065 264.375 C 280.812 264.230,280.425 262.612,281.462 261.853 C 282.225 261.296,283.482 261.754,283.855 262.726 " stroke="none" fill="#140c4c" fill-rule="evenodd"></path><path id="path2" d="M325.684 161.213 C 326.167 161.306,326.958 161.306,327.441 161.213 C 327.925 161.120,327.529 161.044,326.563 161.044 C 325.596 161.044,325.200 161.120,325.684 161.213 M217.383 161.735 C 218.115 162.035,218.107 162.056,217.256 162.082 C 216.757 162.097,215.031 162.552,213.421 163.092 C 211.810 163.633,210.302 163.957,210.069 163.813 C 209.823 163.661,209.757 163.732,209.912 163.983 C 210.242 164.517,208.742 165.372,208.135 164.997 C 207.880 164.840,207.799 164.896,207.943 165.130 C 208.245 165.618,207.213 166.565,206.715 166.257 C 206.521 166.137,205.943 166.518,205.428 167.102 L 204.492 168.164 205.664 167.193 C 206.494 166.505,206.385 166.705,205.292 167.876 C 203.713 169.569,203.011 170.072,203.937 168.848 C 204.382 168.259,204.376 168.234,203.892 168.667 C 203.583 168.944,203.327 169.471,203.325 169.839 C 203.322 170.207,203.101 170.464,202.832 170.410 C 202.563 170.356,202.365 170.444,202.390 170.605 C 202.519 171.424,202.295 171.891,201.893 171.642 C 201.624 171.476,201.547 171.535,201.704 171.788 C 202.029 172.314,200.773 175.041,200.331 174.768 C 200.154 174.658,200.100 174.805,200.211 175.095 C 200.322 175.384,200.117 176.404,199.756 177.361 C 199.285 178.611,199.061 180.690,198.961 184.736 C 198.885 187.834,198.736 190.456,198.630 190.562 C 198.524 190.668,198.440 190.946,198.443 191.178 C 198.447 191.411,198.635 191.338,198.862 191.016 C 199.179 190.565,199.239 190.719,199.122 191.679 C 199.038 192.365,199.099 192.847,199.258 192.749 C 199.664 192.499,200.118 194.805,199.773 195.363 C 199.582 195.673,199.658 195.719,200.006 195.504 C 200.382 195.272,200.455 195.362,200.274 195.834 C 200.137 196.192,200.173 196.484,200.355 196.484 C 200.732 196.484,201.802 198.856,201.646 199.345 C 201.589 199.523,201.753 199.538,202.010 199.379 C 202.326 199.183,202.398 199.296,202.232 199.728 C 202.097 200.079,202.183 200.486,202.421 200.634 C 202.702 200.807,202.744 200.722,202.539 200.391 C 202.324 200.042,202.375 199.973,202.701 200.174 C 202.963 200.337,203.089 200.703,202.980 200.988 C 202.870 201.272,203.078 201.738,203.441 202.022 C 204.010 202.468,204.047 202.455,203.711 201.935 C 203.233 201.195,203.742 201.722,206.014 204.317 C 206.851 205.273,207.407 205.791,207.249 205.469 C 207.092 205.146,207.346 205.322,207.813 205.859 C 208.279 206.396,208.548 206.616,208.409 206.347 C 208.126 205.799,210.971 207.352,211.420 207.990 C 211.600 208.247,211.711 208.254,211.719 208.008 C 211.725 207.793,211.867 207.832,212.035 208.096 C 212.202 208.359,212.683 208.627,213.103 208.693 C 213.523 208.758,214.043 208.918,214.258 209.048 C 215.617 209.871,225.451 210.169,225.709 209.395 C 225.786 209.167,226.013 209.082,226.215 209.206 C 226.797 209.566,228.941 208.966,228.665 208.520 C 228.511 208.270,228.714 208.213,229.207 208.370 C 229.680 208.520,230.228 208.388,230.576 208.040 C 230.896 207.720,231.266 207.568,231.399 207.701 C 231.532 207.834,231.641 207.727,231.641 207.464 C 231.641 207.201,231.816 207.094,232.031 207.227 C 232.246 207.359,232.422 207.302,232.422 207.099 C 232.422 206.896,232.883 206.428,233.447 206.059 C 234.125 205.615,234.365 205.566,234.157 205.917 C 233.984 206.207,234.622 205.643,235.574 204.663 C 236.526 203.683,236.865 203.419,236.328 204.077 L 235.352 205.273 236.607 204.139 C 237.298 203.516,237.777 202.867,237.672 202.697 C 237.567 202.527,238.143 201.726,238.952 200.917 C 239.761 200.108,240.207 199.580,239.943 199.743 C 239.679 199.906,239.856 199.264,240.337 198.316 C 240.818 197.368,241.341 196.665,241.499 196.754 C 241.658 196.843,241.672 196.614,241.531 196.245 C 241.366 195.817,241.425 195.669,241.694 195.835 C 241.966 196.003,242.037 195.797,241.894 195.252 C 241.730 194.624,241.805 194.490,242.186 194.726 C 242.530 194.938,242.605 194.891,242.414 194.582 C 242.058 194.006,242.530 191.721,242.952 191.982 C 243.122 192.087,243.194 191.342,243.110 190.325 C 243.025 189.281,243.089 188.768,243.257 189.146 C 243.421 189.514,243.555 187.806,243.555 185.352 C 243.555 182.897,243.422 181.190,243.261 181.558 C 243.079 181.972,243.011 181.679,243.082 180.789 C 243.148 179.957,243.040 179.448,242.826 179.580 C 242.605 179.717,242.549 179.274,242.686 178.479 C 242.812 177.747,242.820 177.385,242.702 177.674 C 242.432 178.338,240.556 173.815,240.816 173.124 C 240.921 172.845,240.851 172.712,240.661 172.829 C 240.288 173.060,239.707 172.042,239.670 171.094 C 239.658 170.771,239.384 170.507,239.062 170.507 C 238.740 170.506,238.468 170.155,238.458 169.726 C 238.448 169.296,238.255 168.980,238.030 169.023 C 237.561 169.112,234.521 166.118,234.665 165.708 C 234.717 165.559,234.453 165.436,234.079 165.434 C 233.705 165.432,233.447 165.197,233.506 164.912 C 233.565 164.628,233.450 164.496,233.251 164.619 C 233.051 164.742,231.948 164.407,230.800 163.873 C 229.651 163.340,227.480 162.648,225.977 162.335 C 222.932 161.701,216.142 161.227,217.383 161.735 M322.576 161.823 C 322.942 161.988,322.451 162.029,321.484 161.915 C 320.168 161.760,319.874 161.813,320.313 162.128 C 320.755 162.445,320.564 162.488,319.531 162.305 C 318.567 162.133,318.331 162.176,318.730 162.449 C 319.435 162.933,317.515 163.530,316.759 163.062 C 316.474 162.887,316.387 162.934,316.539 163.180 C 316.843 163.672,315.728 164.172,315.139 163.808 C 314.901 163.661,314.837 163.735,314.990 163.983 C 315.326 164.526,313.821 165.366,313.176 164.994 C 312.911 164.843,312.828 164.864,312.989 165.042 C 313.151 165.221,312.992 165.688,312.636 166.082 C 311.903 166.891,311.138 167.052,311.558 166.309 C 311.709 166.040,311.114 166.506,310.234 167.345 C 309.354 168.184,308.645 168.975,308.660 169.103 C 308.745 169.852,308.546 170.329,308.230 170.134 C 308.030 170.010,307.739 170.115,307.584 170.366 C 307.407 170.652,307.470 170.719,307.752 170.545 C 308.394 170.148,308.316 170.467,307.384 172.047 C 306.933 172.811,306.378 173.322,306.151 173.181 C 305.908 173.031,305.854 173.113,306.021 173.382 C 306.176 173.633,305.958 174.759,305.538 175.884 C 305.118 177.009,304.584 179.248,304.352 180.859 C 303.865 184.244,303.505 191.296,303.893 189.844 C 304.107 189.044,304.203 189.229,304.428 190.868 C 304.578 191.969,304.594 193.199,304.462 193.603 C 304.265 194.208,304.297 194.233,304.645 193.750 C 304.894 193.403,305.069 193.350,305.072 193.620 C 305.075 193.871,305.183 194.399,305.310 194.792 C 305.508 195.403,305.474 195.422,305.078 194.922 C 304.682 194.422,304.648 194.441,304.846 195.051 C 304.974 195.445,305.078 195.851,305.078 195.953 C 305.078 196.056,305.282 196.014,305.530 195.860 C 305.840 195.669,305.913 195.846,305.762 196.424 C 305.619 196.969,305.690 197.175,305.962 197.007 C 306.231 196.841,306.290 196.989,306.126 197.417 C 305.952 197.869,306.016 197.996,306.321 197.808 C 306.626 197.619,306.690 197.747,306.516 198.198 C 306.363 198.597,306.416 198.772,306.645 198.630 C 306.857 198.499,307.031 198.578,307.031 198.805 C 307.031 199.573,307.147 199.803,307.774 200.281 C 308.117 200.542,308.280 200.762,308.135 200.769 C 307.989 200.776,308.700 201.616,309.714 202.637 C 310.829 203.758,311.011 204.029,310.174 203.320 L 308.789 202.148 310.120 203.598 C 310.853 204.395,311.582 204.967,311.741 204.869 C 311.900 204.771,312.575 205.200,313.242 205.822 C 313.908 206.445,314.453 206.871,314.453 206.769 C 314.453 206.668,314.722 206.854,315.050 207.182 C 315.379 207.511,315.935 207.669,316.286 207.534 C 316.694 207.378,316.829 207.444,316.660 207.718 C 316.340 208.236,317.772 208.762,318.416 208.363 C 318.685 208.197,318.766 208.252,318.614 208.498 C 318.376 208.882,321.060 209.473,324.979 209.898 C 327.252 210.144,332.796 209.419,334.541 208.647 L 336.195 207.915 337.922 209.699 C 338.871 210.680,339.385 211.341,339.063 211.167 C 338.740 210.994,338.969 211.267,339.571 211.774 C 340.174 212.281,340.731 213.047,340.811 213.477 C 340.891 213.906,340.969 214.323,340.986 214.403 C 341.002 214.483,341.252 214.353,341.540 214.114 C 341.828 213.874,342.180 213.794,342.321 213.936 C 342.462 214.077,342.578 213.988,342.578 213.737 C 342.578 213.486,342.833 213.281,343.145 213.281 C 343.456 213.281,343.890 212.974,344.109 212.598 C 344.328 212.222,344.517 212.090,344.528 212.305 C 344.539 212.520,344.912 212.256,345.355 211.719 C 345.799 211.182,346.028 211.006,345.866 211.328 C 345.703 211.650,346.086 211.387,346.717 210.742 L 347.865 209.570 346.882 208.663 C 346.341 208.164,346.162 207.876,346.484 208.022 C 346.807 208.169,346.623 207.874,346.075 207.367 C 345.528 206.860,345.352 206.612,345.685 206.815 C 346.017 207.018,345.630 206.555,344.824 205.786 C 343.375 204.401,342.904 203.605,343.848 204.134 C 344.116 204.284,344.031 204.083,343.658 203.688 C 343.012 203.003,343.022 202.922,343.853 202.007 C 344.334 201.478,344.463 201.177,344.141 201.338 C 343.818 201.499,343.994 201.248,344.531 200.781 C 345.068 200.314,345.270 200.057,344.979 200.210 C 344.619 200.399,344.664 200.161,345.122 199.462 C 345.491 198.899,345.959 198.438,346.162 198.438 C 346.365 198.438,346.422 198.262,346.289 198.047 C 346.156 197.832,346.244 197.656,346.484 197.656 C 346.725 197.656,346.822 197.496,346.701 197.301 C 346.405 196.821,346.877 195.658,347.270 195.901 C 347.442 196.008,347.484 195.716,347.363 195.252 C 347.222 194.712,347.292 194.501,347.558 194.666 C 347.825 194.831,347.895 194.620,347.754 194.080 C 347.619 193.563,347.686 193.332,347.929 193.482 C 348.174 193.633,348.250 193.337,348.129 192.704 C 347.996 192.006,348.074 191.768,348.375 191.954 C 348.686 192.146,348.742 191.856,348.566 190.974 C 348.423 190.259,348.467 189.816,348.669 189.941 C 348.873 190.068,349.023 188.205,349.023 185.548 C 349.023 182.975,348.871 181.029,348.678 181.148 C 348.488 181.265,348.412 180.818,348.510 180.154 C 348.607 179.491,348.558 179.027,348.401 179.124 C 348.117 179.299,347.437 176.441,347.529 175.462 C 347.556 175.179,347.481 175.045,347.363 175.163 C 347.033 175.494,346.039 173.362,346.258 172.792 C 346.364 172.516,346.255 172.170,346.016 172.022 C 345.735 171.849,345.694 171.934,345.898 172.266 C 346.114 172.614,346.062 172.683,345.737 172.482 C 345.474 172.319,345.353 171.943,345.467 171.645 C 345.581 171.347,345.484 171.145,345.250 171.196 C 345.016 171.247,344.735 171.045,344.627 170.746 C 344.491 170.373,344.598 170.301,344.969 170.516 C 345.287 170.700,345.374 170.683,345.182 170.473 C 345.003 170.277,344.652 170.117,344.401 170.116 C 344.150 170.116,343.943 169.817,343.941 169.453 C 343.935 168.716,341.829 166.340,341.410 166.599 C 340.948 166.885,339.427 165.592,339.702 165.147 C 339.857 164.897,339.783 164.835,339.522 164.997 C 338.956 165.346,337.404 164.535,337.705 164.047 C 337.829 163.846,337.660 163.785,337.328 163.912 C 336.974 164.048,336.627 163.887,336.486 163.519 C 336.354 163.176,336.085 162.994,335.889 163.116 C 335.392 163.423,332.760 162.510,333.004 162.115 C 333.114 161.938,332.456 161.861,331.543 161.945 C 330.467 162.043,330.201 161.996,330.787 161.810 C 331.284 161.652,329.490 161.523,326.800 161.523 C 324.110 161.523,322.209 161.658,322.576 161.823 M154.056 162.282 C 153.937 162.592,153.923 163.163,154.023 163.551 C 154.144 164.019,154.222 163.899,154.252 163.196 L 154.297 162.134 158.887 162.010 L 163.477 161.887 158.874 161.803 C 155.171 161.735,154.230 161.829,154.056 162.282 M184.878 162.008 C 186.121 162.086,188.054 162.085,189.174 162.006 C 190.295 161.928,189.277 161.864,186.914 161.865 C 184.551 161.866,183.634 161.930,184.878 162.008 M246.094 165.625 L 246.094 169.531 252.356 169.531 C 257.007 169.531,258.666 169.657,258.803 170.020 C 259.193 171.049,259.180 208.985,258.789 209.149 C 258.574 209.239,260.552 209.327,263.184 209.344 L 267.969 209.375 267.969 189.844 L 267.969 170.313 274.512 170.229 L 281.055 170.145 274.219 169.922 L 267.383 169.699 273.916 169.615 L 280.448 169.531 280.432 166.016 L 280.415 162.500 263.352 162.408 L 246.289 162.317 263.672 162.109 L 281.055 161.902 263.574 161.810 L 246.094 161.719 246.094 165.625 M289.355 162.008 C 290.698 162.084,292.896 162.084,294.238 162.008 C 295.581 161.932,294.482 161.869,291.797 161.869 C 289.111 161.869,288.013 161.932,289.355 162.008 M154.682 185.840 C 154.678 201.053,154.544 208.976,154.297 208.594 C 153.973 208.093,153.917 208.107,153.912 208.691 C 153.907 209.304,154.383 209.375,158.496 209.375 L 163.086 209.375 162.980 193.728 L 162.873 178.081 164.283 179.491 C 165.140 180.349,165.605 181.130,165.468 181.486 C 165.323 181.864,165.404 181.973,165.696 181.792 C 165.997 181.606,166.066 181.728,165.901 182.158 C 165.748 182.556,165.835 182.767,166.127 182.710 C 166.388 182.659,166.577 182.923,166.548 183.297 C 166.518 183.683,166.673 183.866,166.907 183.721 C 167.163 183.563,167.227 183.708,167.076 184.103 C 166.941 184.454,167.026 184.861,167.265 185.009 C 167.543 185.181,167.597 185.080,167.414 184.728 C 167.258 184.427,167.410 184.526,167.753 184.950 C 168.096 185.373,168.291 185.942,168.187 186.215 C 168.082 186.487,168.210 186.668,168.471 186.616 C 168.732 186.565,168.921 186.829,168.892 187.203 C 168.861 187.589,169.016 187.772,169.251 187.627 C 169.508 187.468,169.570 187.616,169.416 188.017 C 169.264 188.415,169.351 188.627,169.643 188.570 C 169.904 188.518,170.093 188.782,170.064 189.156 C 170.033 189.542,170.188 189.725,170.423 189.580 C 170.680 189.421,170.742 189.569,170.588 189.970 C 170.436 190.368,170.522 190.580,170.815 190.523 C 171.076 190.472,171.263 190.749,171.230 191.139 C 171.198 191.530,171.270 191.750,171.391 191.630 C 171.715 191.305,172.739 192.910,172.477 193.333 C 172.354 193.533,172.459 193.823,172.710 193.979 C 173.015 194.167,173.062 194.091,172.852 193.750 C 172.638 193.404,172.688 193.333,173.007 193.530 C 173.267 193.690,173.415 194.014,173.336 194.250 C 173.258 194.485,173.518 195.003,173.916 195.400 C 174.313 195.797,174.515 196.336,174.366 196.596 C 174.216 196.857,174.238 196.940,174.414 196.780 C 174.858 196.378,175.891 197.943,175.548 198.499 C 175.371 198.786,175.442 198.842,175.747 198.654 C 176.041 198.472,176.190 198.562,176.136 198.887 C 176.013 199.629,176.583 200.815,176.953 200.586 C 177.123 200.481,177.366 200.667,177.494 200.999 C 177.650 201.406,177.567 201.512,177.242 201.324 C 176.976 201.170,177.241 201.504,177.832 202.066 C 178.849 203.033,179.101 203.595,178.920 204.492 C 178.877 204.707,178.974 204.750,179.137 204.587 C 179.491 204.233,180.901 206.257,180.619 206.714 C 180.511 206.888,180.638 207.031,180.901 207.031 C 181.165 207.031,181.266 207.146,181.126 207.286 C 180.986 207.425,181.176 207.790,181.549 208.096 C 181.953 208.427,181.990 208.531,181.641 208.352 C 181.136 208.095,181.129 208.145,181.591 208.714 C 182.039 209.266,182.874 209.375,186.669 209.375 L 191.211 209.375 191.107 185.938 L 191.004 162.500 186.908 162.500 L 182.813 162.500 182.813 177.751 C 182.813 192.060,182.770 192.996,182.129 192.888 C 181.291 192.748,180.012 191.000,180.260 190.337 C 180.359 190.071,180.227 189.895,179.966 189.946 C 179.706 189.997,179.516 189.733,179.546 189.360 C 179.575 188.986,179.456 188.769,179.281 188.877 C 178.956 189.078,178.290 187.565,178.448 186.983 C 178.496 186.806,178.364 186.767,178.154 186.896 C 177.648 187.209,176.842 185.662,177.193 185.051 C 177.345 184.786,177.325 184.701,177.148 184.861 C 176.729 185.241,175.662 183.713,175.983 183.193 C 176.119 182.973,175.997 182.841,175.713 182.900 C 175.427 182.960,175.219 182.704,175.249 182.328 C 175.279 181.942,175.124 181.759,174.890 181.904 C 174.633 182.063,174.570 181.915,174.724 181.514 C 174.877 181.116,174.790 180.904,174.498 180.962 C 174.237 181.013,174.048 180.749,174.077 180.375 C 174.107 179.989,173.952 179.806,173.718 179.951 C 173.461 180.110,173.398 179.962,173.552 179.561 C 173.705 179.163,173.618 178.951,173.326 179.009 C 173.065 179.060,172.876 178.796,172.905 178.422 C 172.935 178.049,172.812 177.834,172.632 177.945 C 172.173 178.228,171.389 176.642,171.722 176.103 C 171.890 175.832,171.821 175.768,171.545 175.939 C 171.135 176.192,170.913 175.706,171.057 174.873 C 171.088 174.696,170.942 174.657,170.732 174.787 C 170.235 175.094,169.414 173.553,169.769 172.978 C 169.949 172.687,169.866 172.645,169.525 172.855 C 169.146 173.089,169.077 172.996,169.265 172.505 C 169.416 172.112,169.365 171.932,169.142 172.069 C 168.656 172.370,167.123 169.893,167.378 169.218 C 167.483 168.938,167.404 168.811,167.203 168.936 C 166.715 169.237,165.904 167.684,166.253 167.119 C 166.413 166.860,166.353 166.783,166.109 166.934 C 165.569 167.268,163.918 164.612,164.291 164.009 C 164.463 163.730,164.405 163.655,164.142 163.818 C 163.905 163.964,163.520 163.728,163.287 163.292 C 162.903 162.574,162.482 162.500,158.775 162.500 L 154.688 162.500 154.682 185.840 M287.198 185.840 L 287.109 209.375 291.895 209.369 C 295.128 209.365,296.490 209.240,296.094 208.984 C 295.707 208.734,295.673 208.604,295.994 208.600 C 296.285 208.596,296.414 208.241,296.316 207.715 C 296.226 207.231,296.139 196.860,296.123 184.668 L 296.094 162.500 291.992 162.500 L 287.891 162.500 287.802 173.730 L 287.713 184.961 287.500 173.633 C 287.331 164.653,287.268 167.183,287.198 185.840 M311.328 166.919 C 311.328 166.986,310.757 167.558,310.059 168.189 L 308.789 169.336 309.936 168.066 C 311.006 166.883,311.328 166.617,311.328 166.919 M342.798 168.066 L 343.945 169.336 342.676 168.189 C 341.978 167.558,341.406 166.986,341.406 166.919 C 341.406 166.617,341.729 166.883,342.798 168.066 M226.479 170.260 C 227.486 170.780,228.045 171.297,227.883 171.560 C 227.723 171.819,227.790 171.887,228.049 171.727 C 228.627 171.369,231.732 174.199,231.480 174.854 C 231.372 175.135,231.479 175.486,231.718 175.634 C 231.981 175.796,232.042 175.724,231.873 175.451 C 231.720 175.203,231.687 175.000,231.799 175.000 C 231.912 175.000,232.203 175.373,232.447 175.828 C 232.752 176.398,232.758 176.575,232.465 176.394 C 232.201 176.230,232.128 176.359,232.272 176.735 C 232.399 177.067,232.641 177.255,232.808 177.151 C 233.307 176.843,234.076 179.166,233.799 180.147 C 233.612 180.810,233.646 180.904,233.928 180.496 C 234.557 179.583,234.961 182.689,234.787 187.109 C 234.712 189.030,234.612 189.411,234.375 188.672 L 234.062 187.695 234.018 188.672 C 233.994 189.209,233.885 190.088,233.776 190.625 C 233.603 191.476,233.625 191.501,233.949 190.820 C 234.358 189.960,234.516 190.584,234.139 191.567 C 234.009 191.906,233.715 192.067,233.486 191.926 C 233.221 191.762,233.166 191.918,233.335 192.358 C 233.690 193.283,231.935 196.452,230.150 198.110 C 229.377 198.827,229.001 199.063,229.314 198.633 C 229.840 197.911,229.831 197.892,229.199 198.388 C 228.823 198.683,228.516 199.185,228.516 199.504 C 228.516 199.867,228.290 199.997,227.909 199.851 C 227.513 199.699,227.400 199.775,227.583 200.071 C 227.771 200.376,227.644 200.440,227.192 200.266 C 226.824 200.125,226.618 200.164,226.735 200.354 C 226.993 200.771,225.857 201.265,225.355 200.955 C 225.160 200.834,225.000 200.933,225.000 201.175 C 225.000 201.437,224.684 201.515,224.219 201.367 C 223.771 201.225,223.438 201.297,223.438 201.536 C 223.438 201.789,222.431 201.953,220.875 201.953 C 219.201 201.953,218.400 201.812,218.564 201.547 C 218.729 201.281,218.447 201.233,217.748 201.409 C 216.998 201.597,216.762 201.544,216.954 201.233 C 217.126 200.955,217.018 200.871,216.662 201.008 C 216.350 201.127,215.700 200.817,215.217 200.319 C 214.734 199.821,214.489 199.678,214.674 200.000 C 214.931 200.450,214.760 200.423,213.936 199.884 C 212.445 198.909,210.523 196.840,210.756 196.462 C 210.863 196.289,210.744 196.021,210.493 195.865 C 210.207 195.689,210.140 195.752,210.314 196.033 C 210.468 196.281,210.501 196.484,210.388 196.484 C 210.276 196.484,209.984 196.112,209.740 195.656 C 209.435 195.086,209.430 194.910,209.722 195.090 C 209.985 195.253,210.060 195.127,209.919 194.759 C 209.794 194.433,209.488 194.204,209.240 194.251 C 208.992 194.298,208.802 193.949,208.818 193.476 C 208.834 193.004,208.674 192.724,208.463 192.854 C 208.236 192.995,208.169 192.749,208.300 192.249 C 208.421 191.785,208.341 191.406,208.121 191.406 C 207.901 191.406,207.813 191.054,207.926 190.624 C 208.038 190.194,207.969 189.942,207.772 190.064 C 207.561 190.195,207.477 188.950,207.568 187.037 C 207.680 184.680,207.640 184.271,207.423 185.547 C 207.195 186.886,207.156 186.561,207.259 184.180 C 207.401 180.891,208.038 177.977,208.546 178.291 C 208.712 178.393,208.834 178.090,208.818 177.617 C 208.802 177.141,209.001 176.799,209.263 176.851 C 209.556 176.908,209.643 176.696,209.490 176.298 C 209.325 175.868,209.393 175.746,209.695 175.933 C 209.979 176.109,210.070 176.011,209.939 175.669 C 209.824 175.370,210.035 174.877,210.409 174.574 C 210.988 174.104,211.039 174.104,210.757 174.572 C 210.531 174.947,210.571 175.031,210.884 174.838 C 211.135 174.683,211.257 174.420,211.155 174.255 C 210.833 173.733,212.140 172.240,212.822 172.353 C 213.182 172.412,213.434 172.246,213.383 171.984 C 213.263 171.373,214.721 170.581,215.303 170.941 C 215.564 171.102,215.638 171.041,215.484 170.792 C 215.168 170.280,216.606 169.758,217.244 170.152 C 217.516 170.320,217.594 170.263,217.438 170.012 C 216.690 168.800,224.040 169.002,226.479 170.260 M329.585 169.386 C 330.066 169.515,330.365 169.774,330.249 169.962 C 330.133 170.150,330.308 170.200,330.639 170.073 C 332.518 169.352,339.847 176.540,338.860 178.136 C 338.731 178.345,338.795 178.516,339.001 178.516 C 339.664 178.516,340.271 180.968,340.403 184.180 C 340.516 186.920,340.495 187.040,340.234 185.156 C 339.985 183.358,339.957 183.562,340.059 186.408 C 340.188 190.006,339.695 192.773,339.000 192.344 C 338.736 192.181,338.679 192.377,338.842 192.891 C 339.005 193.404,338.890 193.808,338.521 194.014 C 337.967 194.324,337.891 194.480,337.891 195.300 C 337.891 195.532,337.552 195.547,337.012 195.337 C 336.528 195.150,336.177 194.804,336.230 194.569 C 336.284 194.333,336.160 194.141,335.955 194.141 C 335.401 194.141,332.790 190.587,333.043 190.177 C 333.163 189.983,333.028 189.873,332.744 189.932 C 332.459 189.991,332.278 189.775,332.342 189.453 C 332.405 189.131,332.053 189.336,331.560 189.908 C 330.569 191.059,328.362 192.294,327.979 191.912 C 327.845 191.777,327.734 191.872,327.734 192.122 C 327.734 192.373,327.460 192.578,327.125 192.578 C 326.760 192.578,326.629 192.761,326.799 193.035 C 326.994 193.352,326.851 193.410,326.334 193.225 C 325.769 193.024,325.824 193.159,326.563 193.779 C 327.100 194.230,327.289 194.467,326.984 194.306 C 326.633 194.120,326.705 194.380,327.179 195.013 C 327.592 195.563,328.043 195.944,328.182 195.860 C 328.416 195.718,328.663 196.129,328.909 197.070 C 328.965 197.285,329.342 197.693,329.747 197.976 C 330.151 198.259,330.386 198.646,330.269 198.835 C 330.152 199.025,330.406 199.367,330.834 199.596 C 331.712 200.066,331.493 201.349,330.593 201.003 C 330.247 200.870,330.141 200.957,330.311 201.233 C 330.504 201.544,330.267 201.597,329.518 201.409 C 328.819 201.233,328.537 201.281,328.701 201.547 C 328.865 201.811,328.125 201.953,326.586 201.953 C 325.239 201.953,324.219 201.782,324.219 201.555 C 324.219 201.320,323.796 201.263,323.184 201.417 C 322.461 201.598,322.232 201.543,322.423 201.233 C 322.599 200.949,322.481 200.873,322.095 201.021 C 321.295 201.328,318.497 199.641,316.797 197.826 C 316.045 197.024,315.693 196.501,316.016 196.664 C 316.338 196.827,316.090 196.531,315.464 196.006 C 314.709 195.372,314.434 194.878,314.646 194.536 C 314.850 194.205,314.812 194.114,314.542 194.281 C 314.030 194.598,313.508 193.160,313.902 192.521 C 314.086 192.225,314.012 192.173,313.690 192.371 C 313.324 192.598,313.269 192.451,313.477 191.797 C 313.660 191.220,313.614 191.005,313.343 191.173 C 312.780 191.521,312.353 189.140,312.335 185.547 C 312.317 181.984,312.760 179.561,313.361 179.932 C 313.623 180.094,313.682 180.020,313.512 179.744 C 313.117 179.106,313.639 177.668,314.151 177.984 C 314.391 178.133,314.462 178.065,314.315 177.828 C 313.922 177.190,314.763 175.295,315.294 175.623 C 315.543 175.777,315.641 175.732,315.512 175.524 C 314.979 174.661,318.352 171.192,319.209 171.722 C 319.382 171.829,319.426 171.664,319.308 171.358 C 319.068 170.732,320.833 170.105,321.563 170.556 C 321.814 170.712,321.886 170.647,321.734 170.401 C 321.381 169.830,322.856 169.403,324.149 169.703 C 324.931 169.884,325.047 169.845,324.609 169.549 C 323.950 169.103,328.031 168.969,329.585 169.386 M249.121 170.212 C 250.894 170.285,253.794 170.285,255.566 170.212 C 257.339 170.140,255.889 170.081,252.344 170.081 C 248.799 170.081,247.349 170.140,249.121 170.212 M154.013 171.875 C 154.013 172.842,154.089 173.237,154.182 172.754 C 154.275 172.271,154.275 171.479,154.182 170.996 C 154.089 170.513,154.013 170.908,154.013 171.875 M267.480 199.289 C 267.419 204.729,267.369 200.391,267.369 189.648 C 267.369 178.906,267.419 174.456,267.480 179.758 C 267.541 185.060,267.542 193.849,267.480 199.289 M316.968 173.535 L 315.820 174.805 317.090 173.657 C 317.788 173.026,318.359 172.455,318.359 172.388 C 318.359 172.086,318.037 172.352,316.968 173.535 M154.023 179.688 C 154.023 180.869,154.097 181.353,154.186 180.762 C 154.276 180.171,154.276 179.204,154.186 178.613 C 154.097 178.022,154.023 178.506,154.023 179.688 M153.997 183.203 C 153.997 183.955,154.077 184.263,154.176 183.887 C 154.274 183.511,154.274 182.896,154.176 182.520 C 154.077 182.144,153.997 182.451,153.997 183.203 M198.188 185.547 C 198.188 187.588,198.254 188.423,198.334 187.402 C 198.414 186.382,198.414 184.712,198.334 183.691 C 198.254 182.671,198.188 183.506,198.188 185.547 M312.599 185.742 C 312.603 186.602,312.683 186.907,312.776 186.421 C 312.870 185.935,312.866 185.232,312.768 184.859 C 312.671 184.485,312.594 184.883,312.599 185.742 M154.023 186.719 C 154.023 187.900,154.097 188.384,154.186 187.793 C 154.276 187.202,154.276 186.235,154.186 185.645 C 154.097 185.054,154.023 185.537,154.023 186.719 M287.785 191.699 C 287.700 192.505,287.631 191.846,287.631 190.234 C 287.631 188.623,287.700 187.964,287.785 188.770 C 287.869 189.575,287.869 190.894,287.785 191.699 M154.018 192.383 C 154.021 193.457,154.097 193.850,154.187 193.256 C 154.276 192.663,154.274 191.784,154.181 191.303 C 154.089 190.823,154.015 191.309,154.018 192.383 M153.997 195.703 C 153.997 196.455,154.077 196.763,154.176 196.387 C 154.274 196.011,154.274 195.396,154.176 195.020 C 154.077 194.644,153.997 194.951,153.997 195.703 M154.005 202.148 C 154.009 203.008,154.089 203.313,154.183 202.827 C 154.276 202.342,154.272 201.638,154.175 201.265 C 154.077 200.892,154.000 201.289,154.005 202.148 " stroke="none" fill="#0f71fa" fill-rule="evenodd"></path><path id="path3" d="M221.680 161.686 C 235.419 162.846,243.178 171.678,243.156 186.133 C 243.151 189.585,243.248 190.954,243.420 189.844 C 245.781 174.601,236.255 161.959,222.070 161.512 L 218.164 161.389 221.680 161.686 M322.096 161.667 C 321.466 161.803,323.557 161.914,326.744 161.914 C 330.096 161.914,331.896 161.800,331.015 161.644 C 329.159 161.314,323.669 161.329,322.096 161.667 M182.515 177.539 L 182.608 193.164 182.715 177.832 L 182.822 162.500 186.916 162.500 L 191.009 162.500 191.113 185.840 L 191.217 209.180 191.312 185.547 L 191.406 161.914 186.914 161.914 L 182.422 161.914 182.515 177.539 M214.844 161.995 C 209.082 163.000,202.402 169.184,199.739 175.977 C 198.345 179.535,198.113 189.918,199.340 193.890 C 200.312 197.039,200.510 196.498,199.608 193.155 C 198.574 189.323,198.735 180.114,199.891 176.944 C 202.766 169.064,207.626 164.524,215.356 162.498 C 217.834 161.848,217.510 161.531,214.844 161.995 M245.785 165.820 L 245.702 170.117 252.148 170.001 L 258.594 169.885 258.594 189.435 C 258.594 200.187,258.726 208.984,258.887 208.984 C 259.198 208.985,259.117 170.847,258.803 170.020 C 258.666 169.657,257.009 169.531,252.370 169.531 L 246.121 169.531 245.994 165.527 L 245.868 161.523 245.785 165.820 M154.391 185.645 L 154.486 209.180 154.590 185.827 L 154.694 162.474 158.831 162.584 L 162.968 162.695 165.859 167.383 C 167.449 169.961,169.103 172.686,169.535 173.438 C 169.966 174.189,171.575 176.826,173.109 179.297 C 177.440 186.271,177.954 187.111,179.727 190.134 C 180.639 191.690,181.459 192.890,181.548 192.801 C 181.637 192.712,179.647 189.242,177.126 185.089 C 174.605 180.937,170.437 174.067,167.864 169.824 L 163.185 162.109 158.741 162.109 L 154.297 162.109 154.391 185.645 M263.352 162.402 L 280.415 162.508 280.432 166.010 L 280.448 169.512 273.916 169.630 L 267.383 169.747 274.121 169.834 L 280.859 169.922 280.859 166.016 L 280.859 162.109 263.574 162.203 L 246.289 162.296 263.352 162.402 M287.500 173.535 L 287.695 184.961 287.799 173.730 L 287.903 162.500 291.995 162.500 L 296.087 162.500 296.191 184.863 L 296.296 207.227 296.390 184.668 L 296.484 162.109 291.895 162.109 L 287.305 162.109 287.500 173.535 M333.789 162.709 C 334.434 163.005,335.225 163.240,335.547 163.232 C 335.869 163.224,335.605 162.976,334.961 162.681 C 334.316 162.386,333.525 162.151,333.203 162.159 C 332.881 162.166,333.145 162.414,333.789 162.709 M315.625 163.580 C 310.206 166.231,305.517 172.679,304.136 179.378 C 303.123 184.292,303.633 192.562,305.089 194.826 C 305.482 195.437,305.501 195.427,305.271 194.727 C 300.865 181.305,306.444 167.757,318.359 162.947 C 319.183 162.615,319.214 162.551,318.555 162.541 C 318.125 162.534,316.807 163.002,315.625 163.580 M336.328 163.443 C 336.328 163.532,337.180 164.129,338.222 164.770 C 345.016 168.951,348.212 174.991,348.800 184.766 L 349.093 189.648 349.156 185.865 C 349.274 178.765,347.175 172.763,342.990 168.235 C 340.682 165.737,336.328 162.606,336.328 163.443 M216.275 170.073 C 210.593 172.468,207.512 177.340,207.229 184.375 C 207.156 186.201,207.173 187.080,207.268 186.328 C 207.362 185.576,207.619 183.730,207.839 182.227 C 209.767 169.025,224.020 165.104,231.978 175.586 L 232.868 176.758 232.157 175.445 C 229.336 170.239,221.872 167.714,216.275 170.073 M323.828 169.384 C 320.181 170.517,319.141 170.906,319.141 171.136 C 319.141 171.286,318.625 171.734,317.994 172.134 C 313.869 174.745,311.281 183.363,312.634 189.981 C 313.129 192.404,313.279 191.418,312.863 188.480 C 310.459 171.503,329.780 162.150,337.924 176.349 C 338.546 177.433,339.057 178.135,339.059 177.909 C 339.098 173.501,328.918 167.804,323.828 169.384 M267.369 189.648 C 267.369 200.391,267.419 204.729,267.480 199.289 C 267.542 193.849,267.541 185.060,267.480 179.758 C 267.419 174.456,267.369 178.906,267.369 189.648 M232.824 176.953 C 232.823 177.061,233.172 178.263,233.599 179.625 C 234.147 181.373,234.375 183.200,234.375 185.842 C 234.375 187.900,234.464 189.495,234.572 189.386 C 235.071 188.887,234.813 182.082,234.219 180.078 C 233.673 178.236,232.826 176.341,232.824 176.953 M163.069 193.555 C 163.069 202.148,163.120 205.608,163.183 201.244 C 163.246 196.879,163.246 189.847,163.183 185.619 C 163.120 181.390,163.069 184.961,163.069 193.555 M339.231 179.102 C 339.319 179.531,339.517 180.317,339.671 180.848 C 339.825 181.379,340.093 183.136,340.266 184.754 L 340.580 187.695 340.430 184.330 C 340.346 182.441,340.015 180.385,339.675 179.643 C 339.343 178.915,339.143 178.672,339.231 179.102 M164.146 179.492 C 165.608 182.382,173.438 195.002,173.438 194.470 C 173.438 194.161,164.795 179.887,164.370 179.492 C 164.088 179.232,164.014 179.232,164.146 179.492 M287.631 190.234 C 287.631 191.846,287.700 192.505,287.785 191.699 C 287.869 190.894,287.869 189.575,287.785 188.770 C 287.700 187.964,287.631 188.623,287.631 190.234 M207.449 188.900 C 207.464 189.526,207.632 190.391,207.823 190.820 C 208.054 191.342,208.091 191.017,207.936 189.844 C 207.662 187.774,207.410 187.285,207.449 188.900 M339.604 190.039 C 339.364 191.328,339.221 192.445,339.285 192.520 C 339.521 192.797,340.277 189.365,340.160 188.544 C 340.093 188.077,339.843 188.750,339.604 190.039 M333.789 191.797 C 334.781 193.086,335.668 194.141,335.761 194.141 C 336.068 194.141,332.624 189.496,332.301 189.474 C 332.128 189.463,332.797 190.508,333.789 191.797 M329.977 190.771 C 327.870 192.066,327.657 192.421,329.563 191.460 C 330.462 191.007,331.307 190.458,331.442 190.240 C 331.779 189.694,331.654 189.740,329.977 190.771 M208.218 192.064 C 208.195 192.760,208.978 194.668,209.197 194.449 C 209.301 194.345,209.128 193.661,208.810 192.930 C 208.493 192.199,208.227 191.810,208.218 192.064 M242.232 193.571 C 241.971 194.655,241.238 196.588,240.603 197.868 C 239.844 199.399,239.713 199.861,240.221 199.219 C 241.173 198.013,243.116 192.824,242.879 192.118 C 242.784 191.834,242.492 192.488,242.232 193.571 M313.524 192.578 C 313.867 193.935,314.747 195.598,315.306 195.943 C 315.564 196.102,315.420 195.630,314.987 194.893 C 314.554 194.157,313.992 193.115,313.738 192.578 L 313.277 191.602 313.524 192.578 M347.401 194.483 C 346.939 195.906,346.614 197.126,346.680 197.195 C 346.892 197.417,348.475 192.864,348.357 192.372 C 348.294 192.111,347.864 193.061,347.401 194.483 M232.508 194.330 C 232.044 195.284,231.008 196.818,230.204 197.739 L 228.744 199.414 230.149 198.110 C 231.483 196.871,233.853 193.098,233.511 192.756 C 233.423 192.667,232.971 193.376,232.508 194.330 M174.268 196.392 C 174.778 197.308,175.601 198.539,176.097 199.126 C 176.593 199.714,176.354 199.141,175.567 197.852 C 173.853 195.046,172.959 194.042,174.268 196.392 M209.689 195.508 C 210.276 196.630,212.655 199.054,213.940 199.842 C 214.743 200.333,214.649 200.179,213.595 199.269 C 212.801 198.585,211.505 197.282,210.715 196.375 C 209.925 195.469,209.463 195.078,209.689 195.508 M305.500 196.012 C 305.465 196.573,306.936 199.609,307.242 199.609 C 307.350 199.609,307.107 198.950,306.703 198.145 C 306.299 197.339,305.869 196.416,305.749 196.094 C 305.605 195.707,305.520 195.679,305.500 196.012 M200.391 196.771 C 200.391 197.476,204.133 202.839,205.506 204.102 C 206.443 204.964,206.323 204.734,205.050 203.226 C 204.099 202.100,202.661 200.091,201.855 198.761 C 201.050 197.431,200.391 196.536,200.391 196.771 M316.797 197.809 C 318.376 199.514,320.774 201.015,322.461 201.354 C 323.105 201.484,322.719 201.223,321.602 200.775 C 320.486 200.327,318.640 199.144,317.501 198.146 C 315.712 196.579,315.616 196.533,316.797 197.809 M226.758 200.226 C 225.898 200.739,225.321 201.162,225.475 201.165 C 226.031 201.178,228.516 199.848,228.516 199.537 C 228.516 199.149,228.646 199.098,226.758 200.226 M216.016 200.977 C 216.553 201.284,217.256 201.534,217.578 201.533 C 217.900 201.533,217.573 201.275,216.850 200.961 C 215.186 200.239,214.740 200.247,216.016 200.977 M236.940 203.040 C 235.223 204.984,235.054 205.259,236.289 204.102 C 237.752 202.730,239.728 200.368,239.382 200.403 C 239.314 200.410,238.215 201.597,236.940 203.040 M309.961 203.069 C 311.035 204.208,312.441 205.506,313.086 205.954 C 314.434 206.890,314.396 206.850,310.742 203.502 C 308.218 201.190,308.158 201.156,309.961 203.069 M219.425 201.844 C 220.118 201.931,221.349 201.932,222.159 201.848 C 222.970 201.763,222.402 201.692,220.898 201.691 C 219.395 201.689,218.731 201.758,219.425 201.844 M325.293 201.845 C 325.991 201.932,327.134 201.932,327.832 201.845 C 328.530 201.758,327.959 201.688,326.563 201.688 C 325.166 201.688,324.595 201.758,325.293 201.845 M178.510 203.418 C 178.964 204.224,179.699 205.322,180.144 205.859 L 180.952 206.836 180.269 205.698 C 179.893 205.072,179.240 203.973,178.817 203.256 C 177.758 201.463,177.488 201.605,178.510 203.418 M208.419 206.283 C 208.686 206.716,210.953 207.927,211.142 207.738 C 211.215 207.666,210.581 207.227,209.734 206.763 C 208.887 206.299,208.295 206.083,208.419 206.283 M340.220 212.781 C 341.215 214.286,341.657 214.604,341.994 214.059 C 342.132 213.836,342.061 213.701,341.835 213.760 C 341.610 213.819,340.967 213.340,340.407 212.695 L 339.389 211.523 340.220 212.781 M211.809 236.328 C 211.809 237.080,211.890 237.388,211.988 237.012 C 212.086 236.636,212.086 236.021,211.988 235.645 C 211.890 235.269,211.809 235.576,211.809 236.328 M302.837 240.124 C 303.431 240.214,304.310 240.211,304.791 240.119 C 305.271 240.026,304.785 239.953,303.711 239.955 C 302.637 239.958,302.244 240.034,302.837 240.124 " stroke="none" fill="#0b8ffb" fill-rule="evenodd"></path><path id="path4" d="M80.469 159.911 C 74.869 161.543,69.958 166.523,69.930 170.598 C 69.923 171.681,69.692 171.976,68.291 172.691 C 62.865 175.459,59.562 182.177,60.863 187.801 C 61.217 189.334,61.133 189.693,59.823 192.245 C 56.239 199.230,58.818 207.713,65.382 210.527 C 66.988 211.215,67.081 211.344,67.302 213.215 C 68.086 219.836,75.906 225.459,83.568 224.911 C 87.083 224.660,92.188 221.535,92.188 219.635 C 92.188 219.316,92.961 219.916,93.906 220.968 C 101.052 228.916,115.096 224.239,117.895 212.979 C 118.530 210.427,118.604 210.323,120.499 209.360 C 125.815 206.660,128.086 199.064,125.251 193.469 C 124.231 191.457,124.229 191.430,124.841 189.039 C 126.358 183.120,123.034 175.752,117.342 172.416 C 115.987 171.622,115.635 171.155,115.256 169.649 C 112.844 160.072,99.453 155.814,93.406 162.702 L 92.228 164.044 91.455 162.959 C 89.554 160.289,84.234 158.814,80.469 159.911 M219.816 160.438 C 220.509 160.524,221.739 160.526,222.550 160.441 C 223.360 160.357,222.793 160.286,221.289 160.284 C 219.785 160.283,219.122 160.352,219.816 160.438 M328.223 160.426 C 328.599 160.524,329.214 160.524,329.590 160.426 C 329.966 160.327,329.658 160.247,328.906 160.247 C 328.154 160.247,327.847 160.327,328.223 160.426 M191.590 185.547 C 191.590 198.760,191.639 204.165,191.699 197.559 C 191.759 190.952,191.759 180.142,191.699 173.535 C 191.639 166.929,191.590 172.334,191.590 185.547 M245.460 166.016 C 245.460 168.486,245.524 169.497,245.601 168.262 C 245.679 167.026,245.679 165.005,245.601 163.770 C 245.524 162.534,245.460 163.545,245.460 166.016 M281.007 166.016 C 281.007 168.486,281.071 169.497,281.148 168.262 C 281.226 167.026,281.226 165.005,281.148 163.770 C 281.071 162.534,281.007 163.545,281.007 166.016 M296.668 185.547 C 296.668 198.760,296.717 204.165,296.777 197.559 C 296.837 190.952,296.837 180.142,296.777 173.535 C 296.717 166.929,296.668 172.334,296.668 185.547 M182.209 177.734 C 182.209 186.221,182.261 189.692,182.324 185.449 C 182.387 181.206,182.387 174.263,182.324 170.020 C 182.261 165.776,182.209 169.248,182.209 177.734 M106.172 164.609 C 112.077 167.601,112.999 174.602,108.035 178.752 C 106.532 180.008,106.235 180.470,106.330 181.406 C 106.690 184.941,111.918 182.429,114.202 177.625 L 115.145 175.641 117.278 177.774 C 122.234 182.730,122.315 189.032,117.467 192.578 C 113.745 195.301,116.172 198.551,119.991 195.959 L 121.397 195.005 121.831 195.958 C 122.482 197.387,122.340 200.385,121.537 202.152 C 117.716 210.562,105.273 206.332,105.273 196.622 C 105.273 189.474,101.369 189.961,100.873 197.172 C 100.462 203.149,105.893 209.340,112.470 210.392 C 114.315 210.687,114.305 210.651,113.285 213.377 C 110.279 221.412,99.290 223.423,95.801 216.577 L 94.922 214.853 94.922 191.827 C 94.922 176.508,95.061 168.433,95.337 167.701 C 96.898 163.572,101.521 162.252,106.172 164.609 M86.943 164.471 C 87.654 164.911,88.771 166.139,89.424 167.200 L 90.612 169.130 90.521 191.889 L 90.430 214.648 89.339 216.505 C 88.738 217.526,87.735 218.740,87.108 219.204 C 86.481 219.667,86.036 220.156,86.119 220.291 C 86.686 221.207,79.983 220.822,77.728 219.809 C 72.876 217.629,69.331 211.719,72.876 211.719 C 76.475 211.719,81.641 209.218,81.641 207.475 C 81.641 205.215,80.338 205.022,75.977 206.637 C 67.898 209.628,60.411 203.979,62.499 196.466 C 63.259 193.729,63.671 193.515,65.647 194.828 C 70.054 197.756,74.609 198.020,74.609 195.347 C 74.609 193.957,74.173 193.609,71.454 192.829 C 70.256 192.486,68.644 191.776,67.872 191.253 C 67.101 190.729,66.368 190.374,66.243 190.463 C 66.118 190.552,66.089 190.523,66.178 190.398 C 66.267 190.273,66.007 189.438,65.600 188.542 C 63.813 184.606,65.320 179.796,69.179 177.122 C 70.025 176.536,70.771 176.126,70.836 176.212 C 70.901 176.297,71.421 177.182,71.991 178.177 C 73.244 180.368,76.730 183.594,77.844 183.594 C 80.526 183.594,80.699 181.114,78.165 178.978 C 75.872 177.045,74.219 173.973,74.219 171.647 C 74.219 166.431,82.530 161.744,86.943 164.471 M153.997 166.797 C 153.997 167.549,154.077 167.856,154.176 167.480 C 154.274 167.104,154.274 166.489,154.176 166.113 C 154.077 165.737,153.997 166.045,153.997 166.797 M236.719 167.383 C 237.448 168.135,238.132 168.750,238.239 168.750 C 238.347 168.750,237.838 168.135,237.109 167.383 C 236.381 166.631,235.696 166.016,235.589 166.016 C 235.482 166.016,235.990 166.631,236.719 167.383 M220.610 169.808 C 221.096 169.901,221.799 169.897,222.173 169.800 C 222.546 169.702,222.148 169.625,221.289 169.630 C 220.430 169.634,220.124 169.714,220.610 169.808 M325.688 169.808 C 326.174 169.901,326.877 169.897,327.251 169.800 C 327.624 169.702,327.227 169.625,326.367 169.630 C 325.508 169.634,325.202 169.714,325.688 169.808 M302.442 183.008 C 302.447 183.867,302.527 184.173,302.620 183.687 C 302.713 183.201,302.710 182.498,302.612 182.124 C 302.514 181.751,302.438 182.148,302.442 183.008 M303.266 185.547 C 303.266 187.588,303.332 188.423,303.412 187.402 C 303.493 186.382,303.493 184.712,303.412 183.691 C 303.332 182.671,303.266 183.506,303.266 185.547 M349.347 185.352 C 349.349 186.855,349.419 187.423,349.504 186.612 C 349.588 185.802,349.587 184.571,349.501 183.878 C 349.414 183.185,349.345 183.848,349.347 185.352 M243.849 185.742 C 243.853 186.602,243.933 186.907,244.026 186.421 C 244.120 185.935,244.116 185.232,244.018 184.859 C 243.921 184.485,243.844 184.883,243.849 185.742 M302.461 187.109 C 302.461 188.291,302.534 188.774,302.624 188.184 C 302.713 187.593,302.713 186.626,302.624 186.035 C 302.534 185.444,302.461 185.928,302.461 187.109 M154.005 198.242 C 154.009 199.102,154.089 199.407,154.183 198.921 C 154.276 198.435,154.272 197.732,154.175 197.359 C 154.077 196.985,154.000 197.383,154.005 198.242 M204.688 203.711 C 205.416 204.463,206.101 205.078,206.208 205.078 C 206.315 205.078,205.807 204.463,205.078 203.711 C 204.349 202.959,203.665 202.344,203.558 202.344 C 203.450 202.344,203.959 202.959,204.688 203.711 M156.543 210.054 C 157.671 210.133,159.517 210.133,160.645 210.054 C 161.772 209.975,160.850 209.910,158.594 209.910 C 156.338 209.910,155.415 209.975,156.543 210.054 M184.683 210.055 C 186.034 210.132,188.144 210.131,189.371 210.054 C 190.598 209.977,189.492 209.914,186.914 209.915 C 184.336 209.916,183.332 209.979,184.683 210.055 M222.363 210.035 C 222.739 210.133,223.354 210.133,223.730 210.035 C 224.106 209.937,223.799 209.856,223.047 209.856 C 222.295 209.856,221.987 209.937,222.363 210.035 M260.840 210.055 C 262.183 210.131,264.380 210.131,265.723 210.055 C 267.065 209.979,265.967 209.916,263.281 209.916 C 260.596 209.916,259.497 209.979,260.840 210.055 M289.761 210.055 C 291.113 210.132,293.222 210.131,294.449 210.054 C 295.676 209.977,294.570 209.914,291.992 209.915 C 289.414 209.916,288.410 209.979,289.761 210.055 M327.641 210.042 C 328.127 210.135,328.830 210.132,329.204 210.034 C 329.577 209.936,329.180 209.860,328.320 209.864 C 327.461 209.868,327.155 209.948,327.641 210.042 M326.855 210.823 C 327.339 210.916,328.130 210.916,328.613 210.823 C 329.097 210.729,328.701 210.653,327.734 210.653 C 326.768 210.653,326.372 210.729,326.855 210.823 M91.396 220.088 C 90.879 220.606,90.557 220.164,90.865 219.359 C 91.069 218.829,91.193 218.795,91.444 219.202 C 91.620 219.487,91.599 219.886,91.396 220.088 M160.063 224.886 C 160.549 224.979,161.252 224.976,161.626 224.878 C 161.999 224.780,161.602 224.704,160.742 224.708 C 159.883 224.712,159.577 224.792,160.063 224.886 M196.047 230.554 C 196.227 231.639,196.282 231.694,196.405 230.912 C 196.485 230.404,196.389 229.827,196.193 229.630 C 195.976 229.413,195.919 229.778,196.047 230.554 M197.795 233.398 C 197.794 235.332,197.860 236.172,197.942 235.266 C 198.024 234.359,198.025 232.777,197.944 231.750 C 197.863 230.723,197.796 231.465,197.795 233.398 M252.887 235.156 C 252.887 238.057,252.949 239.243,253.024 237.793 C 253.099 236.343,253.099 233.970,253.024 232.520 C 252.949 231.069,252.887 232.256,252.887 235.156 M239.544 232.813 C 239.544 233.564,239.624 233.872,239.722 233.496 C 239.821 233.120,239.821 232.505,239.722 232.129 C 239.624 231.753,239.544 232.061,239.544 232.813 M219.889 232.935 C 220.065 233.112,220.892 233.197,221.726 233.124 L 223.242 232.991 221.405 232.803 C 220.394 232.699,219.712 232.759,219.889 232.935 M252.052 233.789 C 252.056 234.648,252.136 234.954,252.229 234.468 C 252.323 233.982,252.319 233.279,252.222 232.906 C 252.124 232.532,252.047 232.930,252.052 233.789 M295.065 236.133 C 295.066 238.281,295.131 239.110,295.210 237.975 C 295.289 236.840,295.289 235.082,295.208 234.069 C 295.128 233.056,295.064 233.984,295.065 236.133 M221.484 233.594 L 218.945 233.850 221.364 233.917 C 222.694 233.954,223.891 233.809,224.023 233.594 C 224.156 233.379,224.211 233.233,224.144 233.271 C 224.078 233.308,222.881 233.453,221.484 233.594 M312.070 233.713 C 312.244 233.885,313.422 233.971,314.689 233.903 L 316.992 233.779 314.373 233.589 C 312.933 233.484,311.897 233.540,312.070 233.713 M290.373 236.914 C 290.372 238.848,290.438 239.688,290.520 238.781 C 290.602 237.875,290.603 236.293,290.522 235.266 C 290.441 234.239,290.374 234.980,290.373 236.914 M189.153 235.156 C 189.153 235.908,189.234 236.216,189.332 235.840 C 189.430 235.464,189.430 234.849,189.332 234.473 C 189.234 234.097,189.153 234.404,189.153 235.156 M212.243 237.305 C 212.245 239.023,212.313 239.678,212.396 238.759 C 212.478 237.840,212.477 236.434,212.393 235.634 C 212.309 234.834,212.242 235.586,212.243 237.305 M304.199 238.166 C 304.683 238.259,305.474 238.259,305.957 238.166 C 306.440 238.073,306.045 237.997,305.078 237.997 C 304.111 237.997,303.716 238.073,304.199 238.166 M176.563 239.616 C 176.563 239.920,176.343 240.258,176.074 240.366 C 175.783 240.484,175.861 240.576,176.270 240.594 C 176.703 240.614,176.953 240.339,176.953 239.844 C 176.953 239.414,176.865 239.063,176.758 239.063 C 176.650 239.063,176.563 239.312,176.563 239.616 M279.785 240.504 C 280.161 240.602,280.776 240.602,281.152 240.504 C 281.528 240.405,281.221 240.325,280.469 240.325 C 279.717 240.325,279.409 240.405,279.785 240.504 M153.216 251.172 C 153.216 251.924,153.296 252.231,153.394 251.855 C 153.493 251.479,153.493 250.864,153.394 250.488 C 153.296 250.112,153.216 250.420,153.216 251.172 M165.375 253.516 C 165.375 255.557,165.441 256.392,165.521 255.371 C 165.602 254.351,165.602 252.681,165.521 251.660 C 165.441 250.640,165.375 251.475,165.375 253.516 M193.507 255.078 C 193.507 257.549,193.571 258.560,193.648 257.324 C 193.726 256.089,193.726 254.067,193.648 252.832 C 193.571 251.597,193.507 252.607,193.507 255.078 M181.811 254.025 C 181.704 254.304,181.666 256.809,181.728 259.591 L 181.840 264.648 182.033 259.081 C 182.224 253.598,182.198 253.017,181.811 254.025 M186.816 253.785 C 187.192 253.883,187.808 253.883,188.184 253.785 C 188.560 253.687,188.252 253.606,187.500 253.606 C 186.748 253.606,186.440 253.687,186.816 253.785 M199.465 253.825 C 199.359 253.995,199.920 254.070,200.711 253.992 C 202.873 253.778,203.130 253.581,201.293 253.546 C 200.392 253.530,199.570 253.655,199.465 253.825 M225.098 253.785 C 225.474 253.883,226.089 253.883,226.465 253.785 C 226.841 253.687,226.533 253.606,225.781 253.606 C 225.029 253.606,224.722 253.687,225.098 253.785 M231.738 253.785 C 232.114 253.883,232.729 253.883,233.105 253.785 C 233.481 253.687,233.174 253.606,232.422 253.606 C 231.670 253.606,231.362 253.687,231.738 253.785 M253.848 253.777 C 254.635 253.943,254.743 254.160,254.610 255.305 C 254.520 256.071,254.600 256.494,254.797 256.297 C 255.546 255.548,254.930 253.714,253.906 253.647 C 252.971 253.586,252.969 253.591,253.848 253.777 M255.531 254.980 C 255.591 256.388,255.600 256.396,255.750 255.200 C 255.843 254.451,256.169 253.885,256.566 253.780 C 257.035 253.657,256.972 253.593,256.348 253.561 C 255.574 253.521,255.476 253.691,255.531 254.980 M260.645 253.785 C 261.021 253.883,261.636 253.883,262.012 253.785 C 262.388 253.687,262.080 253.606,261.328 253.606 C 260.576 253.606,260.269 253.687,260.645 253.785 M280.410 253.777 C 281.198 253.943,281.306 254.160,281.172 255.305 C 281.083 256.071,281.163 256.494,281.359 256.297 C 282.109 255.548,281.493 253.714,280.469 253.647 C 279.534 253.586,279.531 253.591,280.410 253.777 M275.153 258.984 C 275.153 261.885,275.215 263.071,275.290 261.621 C 275.365 260.171,275.365 257.798,275.290 256.348 C 275.215 254.897,275.153 256.084,275.153 258.984 M257.558 259.375 C 257.558 261.201,257.626 261.948,257.708 261.035 C 257.790 260.122,257.790 258.628,257.708 257.715 C 257.626 256.802,257.558 257.549,257.558 259.375 M267.676 258.092 C 268.267 258.182,269.233 258.182,269.824 258.092 C 270.415 258.003,269.932 257.930,268.750 257.930 C 267.568 257.930,267.085 258.003,267.676 258.092 M222.793 261.328 C 222.793 263.154,222.860 263.901,222.942 262.988 C 223.025 262.075,223.025 260.581,222.942 259.668 C 222.860 258.755,222.793 259.502,222.793 261.328 M233.728 261.523 C 233.729 263.242,233.798 263.897,233.880 262.978 C 233.963 262.059,233.962 260.653,233.878 259.853 C 233.794 259.053,233.726 259.805,233.728 261.523 " stroke="none" fill="#161c67" fill-rule="evenodd"></path></g></svg>